<svg width="133" height="44" viewBox="0 0 133 44" fill="none" xmlns="http://www.w3.org/2000/svg">
<g clip-path="url(#clip0_45_856)">
<path d="M32.9908 0.233812V35.8208H3.89904C2.92685 35.8208 1.99448 36.2074 1.30704 36.8957C0.619599 37.584 0.233398 38.5175 0.233398 39.4909V3.90399C0.233398 2.9306 0.619599 1.99707 1.30704 1.30878C1.99448 0.62049 2.92685 0.233812 3.89904 0.233812H9.87579V3.10712H8.76424C8.76399 3.54156 8.67828 3.97168 8.512 4.37295C8.34573 4.77422 8.10214 5.13876 7.79515 5.44577C7.48817 5.75278 7.12379 5.99625 6.72283 6.16227C6.32186 6.32828 5.89217 6.4136 5.45828 6.41335V30.3404C5.89249 30.3401 6.3225 30.4256 6.72371 30.5918C7.12492 30.7581 7.48947 31.0019 7.79651 31.3093C8.10354 31.6167 8.34705 31.9817 8.5131 32.3834C8.67915 32.7851 8.76449 33.2157 8.76424 33.6504H26.6428C26.6428 32.7726 26.9912 31.9306 27.6111 31.3099C28.2311 30.6891 29.072 30.3404 29.9488 30.3404V6.41335C29.072 6.41335 28.2311 6.06461 27.6111 5.44386C26.9912 4.8231 26.6428 3.98117 26.6428 3.10329H16.614V0.22998L32.9908 0.233812Z" fill="#D97D52"/>
<path d="M0.468728 39.4889H0V3.90387C0.00101301 2.86881 0.41213 1.87644 1.14312 1.14454C1.87412 0.41264 2.86527 0.00101427 3.89905 0L10.1092 0V3.33687H8.99192C8.93499 4.19416 8.56927 5.00164 7.96267 5.60934C7.35606 6.21705 6.5498 6.58369 5.6936 6.64118V30.1123C6.54966 30.1702 7.3557 30.537 7.96222 31.1446C8.56875 31.7522 8.9346 32.5595 8.99192 33.4166H26.419C26.4767 32.5596 26.8427 31.7526 27.4492 31.145C28.0556 30.5375 28.8614 30.1706 29.7173 30.1123V6.64118C28.8613 6.5833 28.0552 6.21653 27.4487 5.6089C26.8422 5.00127 26.4763 4.19402 26.419 3.33687H16.3787V0H33.2242V36.0543H3.89905C2.99036 36.0579 2.11989 36.4209 1.47734 37.0642C0.834795 37.7075 0.472255 38.5791 0.468728 39.4889ZM3.89905 0.469308C2.99036 0.472839 2.11989 0.835828 1.47734 1.47917C0.834795 2.12251 0.472255 2.99406 0.468728 3.90387V37.6366C0.802658 37.0167 1.29776 36.4988 1.90163 36.1377C2.5055 35.7765 3.19565 35.5856 3.89905 35.585H32.7574V0.469308H16.8474V2.87331H26.8763V3.10318C26.8773 3.91877 27.2013 4.70066 27.7773 5.27737C28.3533 5.85408 29.1342 6.17852 29.9488 6.17954H30.1822V30.574H29.9488C29.1342 30.575 28.3533 30.8994 27.7773 31.4761C27.2013 32.0528 26.8773 32.8347 26.8763 33.6503V33.884H8.53084V33.6503C8.53033 32.8346 8.20646 32.0524 7.63035 31.4756C7.05424 30.8988 6.27302 30.5745 5.45828 30.574H5.22488V6.17954H5.45828C6.27302 6.17903 7.05424 5.85475 7.63035 5.27793C8.20646 4.70111 8.53033 3.91892 8.53084 3.10318V2.87331H9.6424V0.469308H3.89905Z" fill="#231F20"/>
<path d="M26.6429 3.10327H16.614V10.9972H16.3443L12.979 7.77145L9.89305 10.9972H9.87583V3.10327H8.76428C8.76453 3.53803 8.67919 3.96856 8.51314 4.37027C8.34709 4.77198 8.10358 5.13698 7.79654 5.4444C7.48951 5.75181 7.12496 5.99562 6.72375 6.16188C6.32254 6.32814 5.89253 6.41358 5.45831 6.41333V30.3404C5.89253 30.3401 6.32254 30.4256 6.72375 30.5918C7.12496 30.7581 7.48951 31.0019 7.79654 31.3093C8.10358 31.6167 8.34709 31.9817 8.51314 32.3834C8.67919 32.7851 8.76453 33.2157 8.76428 33.6504H26.6429C26.6429 32.7725 26.9912 31.9306 27.6112 31.3099C28.2312 30.6891 29.0721 30.3404 29.9488 30.3404V6.41333C29.0721 6.41333 28.2312 6.06459 27.6112 5.44384C26.9912 4.82308 26.6429 3.98115 26.6429 3.10327ZM22.3842 30.7752H13.5147V30.1775H22.3842V30.7752ZM24.5671 28.444H11.2246V27.8482H24.569L24.5671 28.444Z" fill="#FBE15F"/>
<path d="M26.8762 33.884H8.53082V33.6503C8.53031 32.8346 8.20643 32.0524 7.63033 31.4755C7.05422 30.8987 6.273 30.5745 5.45826 30.5739H5.22485V6.17952H5.45826C6.273 6.17901 7.05422 5.85473 7.63033 5.27791C8.20643 4.70109 8.53031 3.9189 8.53082 3.10316V2.87329H10.1092V10.4339L12.9789 7.44186L16.3844 10.6983V2.87329H26.882V3.10316C26.883 3.91875 27.207 4.70064 27.783 5.27735C28.359 5.85406 29.14 6.1785 29.9545 6.17952H30.1879V30.5739H29.9545C29.14 30.575 28.359 30.8994 27.783 31.4761C27.207 32.0528 26.883 32.8347 26.882 33.6503L26.8762 33.884ZM8.99189 33.4166H26.419C26.4767 32.5596 26.8427 31.7526 27.4491 31.145C28.0556 30.5375 28.8614 30.1706 29.7173 30.1123V6.64116C28.8612 6.58328 28.0552 6.21651 27.4487 5.60888C26.8422 5.00125 26.4763 4.194 26.419 3.33685H16.8531V11.2308H16.2505L12.9866 8.10272L9.9944 11.2308H9.64237V3.33685H8.99189C8.93497 4.19414 8.56925 5.00161 7.96264 5.60932C7.35604 6.21703 6.54978 6.58367 5.69358 6.64116V30.1123C6.54964 30.1702 7.35567 30.537 7.9622 31.1446C8.56873 31.7522 8.93457 32.5595 8.99189 33.4166ZM22.6233 31.0088H13.2793V29.9437H22.6213L22.6233 31.0088ZM13.75 30.5395H22.1545V30.4111H13.748L13.75 30.5395ZM24.8062 28.6795H10.9912V27.6144H24.8043L24.8062 28.6795ZM11.4599 28.2102H24.3355V28.0837H11.458L11.4599 28.2102Z" fill="#231F20"/>
<path d="M16.614 0.233643V10.9971H16.3442L12.979 7.77322L9.89493 10.9971H9.87579V0.233643H16.614Z" fill="#F16672"/>
<path d="M16.8474 11.2308H16.2505L12.9866 8.10274L9.99442 11.2308H9.6424V0H16.8474V11.2308ZM12.9732 7.44188L16.3787 10.6983V0.469308H10.1092V10.4301L12.9732 7.44188Z" fill="#231F20"/>
<path d="M7.07873 38.259V38.8548H32.9908V40.7301H4.92641V41.3258H32.9908V43.7662H3.89904C3.41766 43.7662 2.941 43.6713 2.49626 43.4868C2.05152 43.3024 1.64743 43.0321 1.30704 42.6913C0.966653 42.3504 0.696644 41.9459 0.512429 41.5006C0.328213 41.0553 0.233398 40.578 0.233398 40.096V39.4907C0.233398 38.5173 0.619599 37.5838 1.30704 36.8955C1.99448 36.2072 2.92685 35.8206 3.89904 35.8206H32.9908V38.261L7.07873 38.259Z" fill="#EBE8DF"/>
<path d="M33.2242 43.9999H3.89905C2.86527 43.9989 1.87412 43.5873 1.14312 42.8554C0.41213 42.1235 0.00101301 41.1311 0 40.0961L0 39.4888C0.00151818 38.4539 0.412797 37.4618 1.14368 36.7301C1.87457 35.9983 2.86542 35.5865 3.89905 35.585H33.2242V38.5023H7.30641V38.6307H33.2242V40.9753H5.16557V41.1017H33.2242V43.9999ZM3.89905 36.0543C2.99036 36.0578 2.11989 36.4208 1.47734 37.0641C0.834795 37.7075 0.472255 38.579 0.468728 39.4888V40.0961C0.471751 41.0062 0.834069 41.8782 1.47667 42.522C2.11927 43.1658 2.99003 43.529 3.89905 43.5325H32.7574V41.5672H4.6911V40.5022H32.7574V39.0962H6.8396V38.0311H32.7574V36.0543H3.89905Z" fill="#231F20"/>
<path d="M33.2088 38.259H7.29108V38.8567H33.2088V38.259Z" fill="#231F20"/>
<path d="M33.2222 38.8682H7.2796V38.2476H33.2222V38.8682ZM7.30256 38.8433H33.1974V38.2686H7.30256V38.8433Z" fill="#231F20"/>
<path d="M33.2089 40.7302H5.14453V41.326H33.2089V40.7302Z" fill="#231F20"/>
<path d="M33.2223 41.3394H5.13306V40.7188H33.2223V41.3394ZM5.16558 41.3145H33.1974V40.7398H5.16558V41.3145Z" fill="#231F20"/>
<path d="M24.5709 27.8481H11.2246V28.4439H24.5709V27.8481Z" fill="#231F20"/>
<path d="M22.3879 30.1775H13.5146V30.7751H22.3879V30.1775Z" fill="#231F20"/>
<path d="M13.5526 19.2195L9.62 23.157L12.1741 25.7143L16.1068 21.7768L13.5526 19.2195Z" fill="#747088"/>
<path d="M12.1754 26.0514L9.29034 23.1589L13.5548 18.8892L16.4399 21.7778L12.1754 26.0514ZM9.94848 23.1589L12.1716 25.3848L15.7741 21.7778L13.5548 19.5519L9.94848 23.1589Z" fill="#231F20"/>
<path d="M20.0711 20.9695L17.8538 23.1877C17.8317 23.2099 17.8055 23.2276 17.7766 23.2396C17.7477 23.2516 17.7167 23.2578 17.6854 23.2578C17.6541 23.2578 17.6231 23.2516 17.5942 23.2396C17.5653 23.2276 17.5391 23.2099 17.517 23.1877L12.1468 17.8146C12.1245 17.7925 12.1069 17.7662 12.0949 17.7373C12.0829 17.7084 12.0767 17.6773 12.0767 17.646C12.0767 17.6147 12.0829 17.5836 12.0949 17.5547C12.1069 17.5258 12.1245 17.4995 12.1468 17.4774L14.3622 15.2554C14.3844 15.2331 14.4108 15.2154 14.4399 15.2033C14.4689 15.1913 14.5001 15.1851 14.5315 15.1851C14.563 15.1851 14.5941 15.1913 14.6232 15.2033C14.6522 15.2154 14.6786 15.2331 14.7008 15.2554L15.3992 15.9546V15.9661L17.1746 17.7418L17.5955 18.1632L19.3173 19.8872L20.0692 20.6381C20.1113 20.6828 20.1349 20.7419 20.1352 20.8034C20.1356 20.8649 20.1127 20.9242 20.0711 20.9695Z" fill="#A2C5E8"/>
<path d="M17.6854 23.4921C17.6236 23.4922 17.5623 23.4801 17.5052 23.4565C17.448 23.4328 17.3962 23.398 17.3525 23.3542L11.9822 17.9773C11.9379 17.9334 11.9027 17.8812 11.8787 17.8237C11.8547 17.7662 11.8423 17.7044 11.8423 17.6421C11.8423 17.5797 11.8547 17.5179 11.8787 17.4604C11.9027 17.4029 11.9379 17.3507 11.9822 17.3068L14.1977 15.0886C14.242 15.043 14.2953 15.0071 14.3543 14.9834C14.4133 14.9596 14.4766 14.9485 14.5401 14.9507C14.6021 14.9505 14.6636 14.9628 14.7208 14.9868C14.7779 15.0108 14.8297 15.0461 14.873 15.0906L15.7225 15.9391L15.7129 15.9506L19.3154 19.5576L20.2318 20.4751C20.3203 20.5638 20.3699 20.6841 20.3699 20.8094C20.3699 20.9347 20.3203 21.055 20.2318 21.1437L18.0183 23.3542C17.9746 23.398 17.9227 23.4328 17.8656 23.4565C17.8085 23.4801 17.7472 23.4922 17.6854 23.4921ZM14.5401 15.42L12.3113 17.6382L17.6816 23.0228L19.897 20.8027L19.3231 20.2108L15.0739 15.9794L14.5401 15.42Z" fill="#231F20"/>
<path d="M25.3495 9.9397V13.8627L23.7348 15.4794L19.3192 19.8948L17.5954 18.1689L23.1819 12.5774L22.761 12.156L17.1764 17.7474L15.3991 15.9698L16.8321 14.537L21.4294 9.9397H25.3495Z" fill="#EBE8DF"/>
<path d="M19.3231 20.2262L17.2664 18.1689L22.8509 12.5774L22.7591 12.4874L17.1746 18.0789L15.0701 15.9718L21.3319 9.7041H25.583V13.9604L23.9013 15.6461L19.3231 20.2262ZM17.9264 18.1689L19.3192 19.5634L23.5703 15.3243L25.1142 13.7765V10.1734H21.527L15.7301 15.9698L17.1746 17.4161L22.7668 11.8246L23.5186 12.5774L17.9264 18.1689Z" fill="#231F20"/>
<path d="M22.7587 12.1589L17.1743 17.7502L17.595 18.1715L23.1794 12.5801L22.7587 12.1589Z" fill="#231F20"/>
<path d="M46.6604 4.18359C48.7151 4.18359 50.4313 4.90511 51.8087 6.34816C53.1862 7.7912 53.875 9.5701 53.875 11.6849C53.875 13.7996 53.1862 15.5792 51.8087 17.0235C50.4313 18.4678 48.7151 19.1893 46.6604 19.188H40.7066V4.18359H46.6604ZM46.6604 16.3607C47.9575 16.3607 49.0136 15.9278 49.8286 15.062C50.6436 14.1961 51.0505 13.0704 51.0492 11.6849C51.0492 10.298 50.6424 9.1723 49.8286 8.30776C49.0149 7.44321 47.9588 7.01093 46.6604 7.01093H43.6625V16.3588L46.6604 16.3607Z" fill="#231F20"/>
<path d="M46.6125 4.13574C48.6673 4.13574 50.3834 4.85726 51.7609 6.3003C53.1384 7.74335 53.8271 9.52288 53.8271 11.6389C53.8271 13.7537 53.1384 15.5332 51.7609 16.9775C50.3834 18.4219 48.6673 19.1434 46.6125 19.1421H40.6588V4.13574H46.6125ZM46.6125 16.3128C47.9097 16.3128 48.9658 15.8799 49.7808 15.0141C50.5958 14.1483 51.0026 13.0232 51.0014 11.6389C51.0014 10.2521 50.5945 9.12637 49.7808 8.26182C48.967 7.39727 47.911 6.965 46.6125 6.965H43.6203V16.3128H46.6125Z" fill="#231F20"/>
<path d="M46.5648 4.08765C48.6195 4.08765 50.3356 4.80917 51.7131 6.25221C53.0906 7.69525 53.7793 9.47479 53.7793 11.5908C53.7793 13.7056 53.0906 15.4851 51.7131 16.9294C50.3356 18.3738 48.6195 19.0953 46.5648 19.094H40.611V4.08765H46.5648ZM46.5648 16.2647C47.8619 16.2647 48.918 15.8318 49.733 14.966C50.548 14.1002 50.9549 12.9751 50.9536 11.5908C50.9536 10.204 50.5467 9.07827 49.733 8.21372C48.9192 7.34918 47.8632 6.9169 46.5648 6.9169H43.5668V16.2647H46.5648Z" fill="#231F20"/>
<path d="M46.5169 4.03979C48.5716 4.03979 50.2878 4.76132 51.6652 6.20436C53.0427 7.6474 53.7315 9.42694 53.7315 11.543C53.7315 13.6577 53.0427 15.4373 51.6652 16.8816C50.2878 18.3259 48.5716 19.0474 46.5169 19.0462H40.5593V4.03979H46.5169ZM46.5169 16.2169C47.814 16.2169 48.8701 15.784 49.6851 14.9182C50.5001 14.0523 50.907 12.9273 50.9057 11.543C50.9057 10.1561 50.4988 9.03042 49.6851 8.16587C48.8714 7.30132 47.8153 6.86905 46.5169 6.86905H43.5189V16.2169H46.5169Z" fill="#231F20"/>
<path d="M46.4691 3.99194C48.5238 3.99194 50.2399 4.71346 51.6174 6.15651C52.9949 7.59955 53.6836 9.37845 53.6836 11.4932C53.6836 13.608 52.9949 15.3875 51.6174 16.8318C50.2399 18.2761 48.5238 18.9977 46.4691 18.9964H40.5153V3.99194H46.4691ZM46.4691 16.169C47.7662 16.169 48.8223 15.7361 49.6373 14.8703C50.4523 14.0045 50.8591 12.8788 50.8579 11.4932C50.8579 10.1064 50.451 8.98065 49.6373 8.11611C48.8235 7.25156 47.7675 6.81928 46.4691 6.81928H43.4711V16.1671L46.4691 16.169Z" fill="#231F20"/>
<path d="M46.4213 3.94409C48.476 3.94409 50.1921 4.66561 51.5696 6.10865C52.9471 7.5517 53.6358 9.33123 53.6358 11.4473C53.6358 13.562 52.9471 15.3416 51.5696 16.7859C50.1921 18.2302 48.476 18.9517 46.4213 18.9504H40.4675V3.94409H46.4213ZM46.4213 16.1212C47.7184 16.1212 48.7745 15.6883 49.5895 14.8225C50.4045 13.9566 50.8114 12.8316 50.8101 11.4473C50.8101 10.0604 50.4032 8.93472 49.5895 8.07017C48.7757 7.20562 47.7197 6.77335 46.4213 6.77335H43.4291V16.1212H46.4213Z" fill="#231F20"/>
<path d="M46.3734 3.89624C48.4282 3.89624 50.1443 4.61776 51.5218 6.0608C52.8992 7.50384 53.588 9.28338 53.588 11.3994C53.588 13.5142 52.8992 15.2937 51.5218 16.738C50.1443 18.1824 48.4282 18.9039 46.3734 18.9026H40.4196V3.89624H46.3734ZM46.3734 16.0733C47.6705 16.0733 48.7266 15.6404 49.5416 14.7746C50.3566 13.9088 50.7635 12.7837 50.7622 11.3994C50.7622 10.0126 50.3554 8.88687 49.5416 8.02232C48.7279 7.15777 47.6718 6.7255 46.3734 6.7255H43.3755V16.0733H46.3734Z" fill="#231F20"/>
<path d="M46.3256 3.84839C48.3804 3.84839 50.0965 4.56991 51.474 6.01295C52.8514 7.45599 53.5402 9.23553 53.5402 11.3516C53.5402 13.4663 52.8514 15.2459 51.474 16.6902C50.0965 18.1345 48.3804 18.856 46.3256 18.8547H40.368V3.84839H46.3256ZM46.3256 16.0255C47.6227 16.0255 48.6788 15.5926 49.4938 14.7268C50.3088 13.8609 50.7157 12.7359 50.7144 11.3516C50.7144 9.96471 50.3076 8.83901 49.4938 7.97447C48.6801 7.10992 47.624 6.67764 46.3256 6.67764H43.3277V16.0255H46.3256Z" fill="#231F20"/>
<path d="M46.2778 3.80054C48.3325 3.80054 50.0486 4.52206 51.4261 5.9651C52.8036 7.40814 53.4923 9.18704 53.4923 11.3018C53.4923 13.4166 52.8036 15.1961 51.4261 16.6404C50.0486 18.0847 48.3325 18.8063 46.2778 18.805H40.324V3.80054H46.2778ZM46.2778 15.9776C47.5749 15.9776 48.631 15.5447 49.446 14.6789C50.261 13.8131 50.6679 12.6874 50.6666 11.3018C50.6666 9.91495 50.2597 8.78925 49.446 7.9247C48.6323 7.06015 47.5762 6.62788 46.2778 6.62788H43.2798V15.9757L46.2778 15.9776Z" fill="#231F20"/>
<path d="M46.2299 3.75244C48.2847 3.75244 50.0008 4.47396 51.3783 5.917C52.7558 7.36005 53.4445 9.13958 53.4445 11.2556C53.4445 13.3704 52.7558 15.1499 51.3783 16.5942C50.0008 18.0386 48.2847 18.7601 46.2299 18.7588H40.2761V3.75244H46.2299ZM46.2299 15.9295C47.5271 15.9295 48.5831 15.4966 49.3981 14.6308C50.2131 13.765 50.62 12.6399 50.6187 11.2556C50.6187 9.86877 50.2119 8.74307 49.3981 7.87852C48.5844 7.01397 47.5283 6.5817 46.2299 6.5817H43.2377V15.9295H46.2299Z" fill="#231F20"/>
<path d="M46.1821 3.70459C48.2368 3.70459 49.9529 4.42611 51.3304 5.86915C52.7079 7.31219 53.3966 9.09173 53.3966 11.2078C53.3966 13.3225 52.7079 15.1021 51.3304 16.5464C49.9529 17.9907 48.2368 18.7122 46.1821 18.7109H40.2283V3.70459H46.1821ZM46.1821 15.8817C47.4792 15.8817 48.5353 15.4488 49.3503 14.583C50.1653 13.7171 50.5722 12.5921 50.5709 11.2078C50.5709 9.82092 50.164 8.69522 49.3503 7.83067C48.5365 6.96612 47.4805 6.53385 46.1821 6.53385H43.1841V15.8817H46.1821Z" fill="#231F20"/>
<path d="M46.1343 3.65674C48.189 3.65674 49.9051 4.37826 51.2826 5.8213C52.6601 7.26434 53.3488 9.04388 53.3488 11.1599C53.3488 13.2747 52.6601 15.0542 51.2826 16.4985C49.9051 17.9428 48.189 18.6644 46.1343 18.6631H40.1766V3.65674H46.1343ZM46.1343 15.8338C47.4314 15.8338 48.4875 15.4009 49.3025 14.5351C50.1175 13.6693 50.5244 12.5442 50.5231 11.1599C50.5231 9.77306 50.1162 8.64736 49.3025 7.78282C48.4887 6.91827 47.4327 6.48599 46.1343 6.48599H43.1363V15.8338H46.1343Z" fill="#231F20"/>
<path d="M46.0864 3.60889C48.1412 3.60889 49.8573 4.33041 51.2348 5.77345C52.6123 7.21649 53.301 8.99539 53.301 11.1101C53.301 13.2249 52.6123 15.0044 51.2348 16.4488C49.8573 17.8931 48.1412 18.6146 46.0864 18.6133H40.1326V3.60889H46.0864ZM46.0864 15.786C47.3836 15.786 48.4396 15.3531 49.2546 14.4873C50.0697 13.6214 50.4765 12.4957 50.4752 11.1101C50.4752 9.7233 50.0684 8.5976 49.2546 7.73305C48.4409 6.8685 47.3848 6.43623 46.0864 6.43623H43.0885V15.7841L46.0864 15.786Z" fill="#231F20"/>
<path d="M46.0386 3.56104C48.0934 3.56104 49.8095 4.28256 51.187 5.7256C52.5645 7.16864 53.2532 8.94818 53.2532 11.0642C53.2532 13.179 52.5645 14.9585 51.187 16.4028C49.8095 17.8471 48.0934 18.5687 46.0386 18.5674H40.0848V3.56104H46.0386ZM46.0386 15.7381C47.3358 15.7381 48.3918 15.3052 49.2069 14.4394C50.0219 13.5736 50.4287 12.4485 50.4275 11.0642C50.4275 9.67736 50.0206 8.55166 49.2069 7.68711C48.3931 6.82256 47.337 6.39029 46.0386 6.39029H43.0464V15.7381H46.0386Z" fill="#231F20"/>
<path d="M45.9908 3.51318C48.0455 3.51318 49.7616 4.2347 51.1391 5.67775C52.5166 7.12079 53.2054 8.90033 53.2054 11.0164C53.2054 13.1311 52.5166 14.9107 51.1391 16.355C49.7616 17.7993 48.0455 18.5208 45.9908 18.5195H40.037V3.51318H45.9908ZM45.9908 15.6903C47.2879 15.6903 48.344 15.2574 49.159 14.3915C49.974 13.5257 50.3809 12.4007 50.3796 11.0164C50.3796 9.62951 49.9727 8.50381 49.159 7.63926C48.3453 6.77471 47.2892 6.34244 45.9908 6.34244H42.9928V15.6903H45.9908Z" fill="#231F20"/>
<path d="M45.943 3.46533C47.9977 3.46533 49.7138 4.18685 51.0913 5.62989C52.4688 7.07294 53.1576 8.85247 53.1576 10.9685C53.1576 13.0833 52.4688 14.8628 51.0913 16.3071C49.7138 17.7514 47.9977 18.473 45.943 18.4717H39.9854V3.46533H45.943ZM45.943 15.6424C47.2401 15.6424 48.2962 15.2095 49.1112 14.3437C49.9262 13.4779 50.3331 12.3528 50.3318 10.9685C50.3318 9.58166 49.9249 8.45596 49.1112 7.59141C48.2975 6.72686 47.2414 6.29459 45.943 6.29459H42.945V15.6424H45.943Z" fill="#231F20"/>
<path d="M45.8951 3.41724C47.9499 3.41724 49.666 4.13876 51.0435 5.5818C52.421 7.02484 53.1097 8.80374 53.1097 10.9185C53.1097 13.0333 52.421 14.8128 51.0435 16.2571C49.666 17.7014 47.9499 18.423 45.8951 18.4217H39.9413V3.41724H45.8951ZM45.8951 15.5943C47.1923 15.5943 48.2483 15.1614 49.0634 14.2956C49.8784 13.4298 50.2852 12.3041 50.284 10.9185C50.284 9.53165 49.8771 8.40595 49.0634 7.5414C48.2496 6.67685 47.1935 6.24458 45.8951 6.24458H42.8972V15.5924L45.8951 15.5943Z" fill="#231F20"/>
<path d="M45.8473 3.36938C47.902 3.36938 49.6182 4.09091 50.9956 5.53395C52.3731 6.97699 53.0619 8.75653 53.0619 10.8726C53.0619 12.9873 52.3731 14.7669 50.9956 16.2112C49.6182 17.6555 47.902 18.377 45.8473 18.3757H39.8935V3.36938H45.8473ZM45.8473 15.5465C47.1444 15.5465 48.2005 15.1136 49.0155 14.2477C49.8305 13.3819 50.2374 12.2569 50.2361 10.8726C50.2361 9.48571 49.8292 8.36001 49.0155 7.49546C48.2018 6.63091 47.1457 6.19864 45.8473 6.19864H42.8551V15.5465H45.8473Z" fill="#231F20"/>
<path d="M45.7994 3.32153C47.8542 3.32153 49.5703 4.04305 50.9478 5.4861C52.3253 6.92914 53.014 8.70868 53.014 10.8247C53.014 12.9395 52.3253 14.719 50.9478 16.1633C49.5703 17.6076 47.8542 18.3292 45.7994 18.3279H39.8456V3.32153H45.7994ZM45.7994 15.4986C47.0966 15.4986 48.1526 15.0657 48.9677 14.1999C49.7827 13.3341 50.1895 12.209 50.1883 10.8247C50.1883 9.43786 49.7814 8.31216 48.9677 7.44761C48.1539 6.58306 47.0978 6.15079 45.7994 6.15079H42.8015V15.4986H45.7994Z" fill="#231F20"/>
<path d="M45.7516 3.27368C47.8064 3.27368 49.5225 3.9952 50.9 5.43824C52.2775 6.88129 52.9662 8.66082 52.9662 10.7769C52.9662 12.8916 52.2775 14.6712 50.9 16.1155C49.5225 17.5598 47.8064 18.2813 45.7516 18.28H39.794V3.27368H45.7516ZM45.7516 15.4508C47.0488 15.4508 48.1048 15.0179 48.9198 14.152C49.7349 13.2862 50.1417 12.1612 50.1404 10.7769C50.1404 9.39001 49.7336 8.26431 48.9198 7.39976C48.1061 6.53521 47.05 6.10294 45.7516 6.10294H42.7537V15.4508H45.7516Z" fill="#231F20"/>
<path d="M45.7038 3.22583C47.7585 3.22583 49.4747 3.94735 50.8521 5.39039C52.2296 6.83343 52.9184 8.61233 52.9184 10.7271C52.9184 12.8419 52.2296 14.6214 50.8521 16.0657C49.4747 17.51 47.7585 18.2315 45.7038 18.2303H39.75V3.22583H45.7038ZM45.7038 15.4029C47.0009 15.4029 48.057 14.97 48.872 14.1042C49.687 13.2384 50.0939 12.1127 50.0926 10.7271C50.0926 9.34024 49.6857 8.21454 48.872 7.34999C48.0583 6.48544 47.0022 6.05317 45.7038 6.05317H42.7059V15.401L45.7038 15.4029Z" fill="#231F20"/>
<path d="M45.656 3.17798C47.7108 3.17798 49.4269 3.8995 50.8044 5.34254C52.1818 6.78558 52.8706 8.56512 52.8706 10.6812C52.8706 12.7959 52.1818 14.5755 50.8044 16.0198C49.4269 17.4641 47.7108 18.1856 45.656 18.1843H39.7022V3.17798H45.656ZM45.656 15.3551C46.9531 15.3551 48.0092 14.9222 48.8242 14.0563C49.6392 13.1905 50.0461 12.0655 50.0448 10.6812C50.0448 9.2943 49.638 8.1686 48.8242 7.30406C48.0105 6.43951 46.9544 6.00723 45.656 6.00723H42.6638V15.3551H45.656Z" fill="#231F20"/>
<path d="M45.6082 3.12988C47.6629 3.12988 49.379 3.8514 50.7565 5.29445C52.134 6.73749 52.8227 8.51702 52.8227 10.6331C52.8227 12.7478 52.134 14.5274 50.7565 15.9717C49.379 17.416 47.6629 18.1375 45.6082 18.1362H39.6544V3.12988H45.6082ZM45.6082 15.307C46.9053 15.307 47.9614 14.8741 48.7764 14.0082C49.5914 13.1424 49.9982 12.0174 49.997 10.6331C49.997 9.24621 49.5901 8.12051 48.7764 7.25596C47.9626 6.39141 46.9066 5.95914 45.6082 5.95914H42.6102V15.307H45.6082Z" fill="#231F20"/>
<path d="M45.5603 3.08203C47.6151 3.08203 49.3312 3.80355 50.7087 5.24659C52.0862 6.68964 52.7749 8.46917 52.7749 10.5852C52.7749 12.7 52.0862 14.4795 50.7087 15.9238C49.3312 17.3681 47.6151 18.0897 45.5603 18.0884H39.6027V3.08203H45.5603ZM45.5603 15.2591C46.8575 15.2591 47.9135 14.8262 48.7286 13.9604C49.5436 13.0946 49.9504 11.9695 49.9492 10.5852C49.9492 9.19836 49.5423 8.07266 48.7286 7.20811C47.9148 6.34356 46.8588 5.91129 45.5603 5.91129H42.5624V15.2591H45.5603Z" fill="#231F20"/>
<path d="M45.5125 3.03418C47.5673 3.03418 49.2834 3.7557 50.6609 5.19874C52.0383 6.64178 52.7271 8.42068 52.7271 10.5354C52.7271 12.6502 52.0383 14.4297 50.6609 15.8741C49.2834 17.3184 47.5673 18.0399 45.5125 18.0386H39.5587V3.03418H45.5125ZM45.5125 15.2113C46.8096 15.2113 47.8657 14.7784 48.6807 13.9125C49.4957 13.0467 49.9026 11.921 49.9013 10.5354C49.9013 9.14859 49.4945 8.02289 48.6807 7.15834C47.867 6.29379 46.8109 5.86152 45.5125 5.86152H42.5146V15.2094L45.5125 15.2113Z" fill="#231F20"/>
<path d="M45.4647 2.98633C47.5194 2.98633 49.2355 3.70785 50.613 5.15089C51.9905 6.59393 52.6792 8.37347 52.6792 10.4895C52.6792 12.6043 51.9905 14.3838 50.613 15.8281C49.2355 17.2724 47.5194 17.994 45.4647 17.9927H39.5109V2.98633H45.4647ZM45.4647 15.1634C46.7618 15.1634 47.8179 14.7305 48.6329 13.8647C49.4479 12.9989 49.8548 11.8738 49.8535 10.4895C49.8535 9.10265 49.4466 7.97695 48.6329 7.11241C47.8191 6.24786 46.7631 5.81558 45.4647 5.81558H42.4725V15.1634H45.4647Z" fill="#231F20"/>
<path d="M45.4647 2.98633C47.5194 2.98633 49.2355 3.70785 50.613 5.15089C51.9905 6.59393 52.6792 8.37347 52.6792 10.4895C52.6792 12.6043 51.9905 14.3838 50.613 15.8281C49.2355 17.2724 47.5194 17.994 45.4647 17.9927H39.5109V2.98633H45.4647ZM45.4647 15.1634C46.7618 15.1634 47.8179 14.7305 48.6329 13.8647C49.4479 12.9989 49.8548 11.8738 49.8535 10.4895C49.8535 9.10265 49.4466 7.97695 48.6329 7.11241C47.8191 6.24786 46.7631 5.81558 45.4647 5.81558H42.4725V15.1634H45.4647Z" fill="white"/>
<path d="M45.4647 2.98633C47.5194 2.98633 49.2355 3.70785 50.613 5.15089C51.9905 6.59393 52.6792 8.37347 52.6792 10.4895C52.6792 12.6043 51.9905 14.3838 50.613 15.8281C49.2355 17.2724 47.5194 17.994 45.4647 17.9927H39.5109V2.98633H45.4647ZM45.4647 15.1634C46.7618 15.1634 47.8179 14.7305 48.6329 13.8647C49.4479 12.9989 49.8548 11.8738 49.8535 10.4895C49.8535 9.10265 49.4466 7.97695 48.6329 7.11241C47.8191 6.24786 46.7631 5.81558 45.4647 5.81558H42.4725V15.1634H45.4647Z" stroke="#231F20" stroke-miterlimit="10"/>
<path d="M58.524 4.18359H61.4779V19.19H58.524V4.18359Z" fill="#231F20"/>
<path d="M58.4761 4.13574H61.4301V19.1421H58.4761V4.13574Z" fill="#231F20"/>
<path d="M58.4283 4.08765H61.3823V19.094H58.4283V4.08765Z" fill="#231F20"/>
<path d="M58.3805 4.03979H61.3344V19.0462H58.3805V4.03979Z" fill="#231F20"/>
<path d="M58.3326 3.99194H61.2866V18.9983H58.3326V3.99194Z" fill="#231F20"/>
<path d="M58.2849 3.94409H61.2388V18.9504H58.2849V3.94409Z" fill="#231F20"/>
<path d="M58.237 3.89624H61.1909V18.9026H58.237V3.89624Z" fill="#231F20"/>
<path d="M58.1891 3.84839H61.1431V18.8547H58.1891V3.84839Z" fill="#231F20"/>
<path d="M58.1414 3.80054H61.0953V18.8069H58.1414V3.80054Z" fill="#231F20"/>
<path d="M58.0935 3.75244H61.0474V18.7588H58.0935V3.75244Z" fill="#231F20"/>
<path d="M58.0457 3.70459H60.9996V18.7109H58.0457V3.70459Z" fill="#231F20"/>
<path d="M57.9979 3.65674H60.9518V18.6631H57.9979V3.65674Z" fill="#231F20"/>
<path d="M57.95 3.60889H60.904V18.6152H57.95V3.60889Z" fill="#231F20"/>
<path d="M57.9022 3.56104H60.8562V18.5674H57.9022V3.56104Z" fill="#231F20"/>
<path d="M57.8544 3.51318H60.8083V18.5195H57.8544V3.51318Z" fill="#231F20"/>
<path d="M57.8065 3.46533H60.7605V18.4717H57.8065V3.46533Z" fill="#231F20"/>
<path d="M57.7587 3.41724H60.7127V18.4236H57.7587V3.41724Z" fill="#231F20"/>
<path d="M57.7109 3.36938H60.6648V18.3757H57.7109V3.36938Z" fill="#231F20"/>
<path d="M57.663 3.32153H60.617V18.3279H57.663V3.32153Z" fill="#231F20"/>
<path d="M57.6152 3.27368H60.5692V18.28H57.6152V3.27368Z" fill="#231F20"/>
<path d="M57.5674 3.22583H60.5213V18.2322H57.5674V3.22583Z" fill="#231F20"/>
<path d="M57.5195 3.17798H60.4735V18.1843H57.5195V3.17798Z" fill="#231F20"/>
<path d="M57.4717 3.12988H60.4257V18.1362H57.4717V3.12988Z" fill="#231F20"/>
<path d="M57.4239 3.08203H60.3778V18.0884H57.4239V3.08203Z" fill="#231F20"/>
<path d="M57.3761 3.03418H60.33V18.0405H57.3761V3.03418Z" fill="#231F20"/>
<path d="M57.3282 2.98633H60.2822V17.9927H57.3282V2.98633Z" fill="#231F20"/>
<path d="M57.3282 2.98633H60.2822V17.9927H57.3282V2.98633Z" fill="white"/>
<path d="M57.3282 2.98633H60.2822V17.9927H57.3282V2.98633Z" stroke="#231F20" stroke-miterlimit="10"/>
<path d="M81.5203 11.1294V12.2787C81.5203 14.4216 80.8354 16.1583 79.4655 17.489C78.0957 18.8197 76.3254 19.4869 74.1546 19.4907C71.8409 19.4907 69.9245 18.7367 68.4055 17.2285C67.6665 16.5149 67.0825 15.6563 66.6901 14.7064C66.2977 13.7564 66.1053 12.7357 66.125 11.7079C66.104 10.6767 66.2936 9.6521 66.6821 8.69688C67.0706 7.74165 67.6499 6.87594 68.3844 6.15282C69.8907 4.63699 71.7574 3.87971 73.9843 3.88099C75.3205 3.86789 76.6378 4.19762 77.8106 4.83876C78.919 5.43078 79.8501 6.30744 80.5082 7.37877L77.9809 8.8365C77.5942 8.19379 77.0338 7.67379 76.3643 7.33663C75.6221 6.94625 74.7939 6.74866 73.9556 6.76197C72.5284 6.76197 71.3543 7.23 70.4334 8.16606C69.5126 9.10212 69.0566 10.2827 69.0655 11.7079C69.0655 13.1241 69.5336 14.2926 70.4698 15.2133C71.406 16.1341 72.6438 16.5951 74.1833 16.5964C75.3312 16.5964 76.2769 16.341 77.0205 15.8301C77.7615 15.3367 78.3039 14.5963 78.551 13.7403H74.0053V11.1294H81.5203Z" fill="#231F20"/>
<path d="M81.4725 11.0815V12.2308C81.4725 14.3737 80.7876 16.1104 79.4177 17.4411C78.0479 18.7718 76.2776 19.439 74.1068 19.4429C71.7931 19.4429 69.8768 18.6888 68.3577 17.1806C67.6187 16.467 67.0347 15.6084 66.6423 14.6585C66.2499 13.7086 66.0575 12.6878 66.0772 11.66C66.0562 10.6288 66.2458 9.60421 66.6343 8.64899C67.0228 7.69376 67.6021 6.82806 68.3367 6.10493C69.843 4.5891 71.7096 3.83119 73.9365 3.83119C75.2727 3.81809 76.59 4.14782 77.7629 4.78896C78.8712 5.38097 79.8023 6.25764 80.4604 7.32897L77.9331 8.78669C77.5491 8.14196 76.9906 7.61928 76.3222 7.27916C75.58 6.88879 74.7518 6.6912 73.9136 6.7045C72.4863 6.7045 71.3123 7.17253 70.3914 8.10859C69.4705 9.04465 69.0101 10.2272 69.0101 11.6562C69.0101 13.0724 69.4782 14.2409 70.4144 15.1616C71.3505 16.0824 72.5884 16.5434 74.1278 16.5446C75.2757 16.5446 76.2215 16.2892 76.9651 15.7784C77.7061 15.285 78.2484 14.5445 78.4956 13.6886H73.9576V11.0815H81.4725Z" fill="#231F20"/>
<path d="M81.4246 11.0335V12.1828C81.4246 14.3256 80.7397 16.0624 79.3699 17.3931C78.0001 18.7237 76.2297 19.391 74.0589 19.3948C71.7453 19.3948 69.8289 18.6407 68.3098 17.1325C67.5708 16.419 66.9868 15.5603 66.5944 14.6104C66.202 13.6605 66.0097 12.6397 66.0293 11.6119C66.0083 10.5808 66.1979 9.55615 66.5864 8.60093C66.975 7.64571 67.5543 6.78 68.2888 6.05688C69.7951 4.54232 71.6617 3.78504 73.8887 3.78504C75.2249 3.77194 76.5422 4.10167 77.715 4.74281C78.825 5.33295 79.758 6.20832 80.4183 7.27899L77.891 8.73672C77.5043 8.09401 76.9439 7.57401 76.2744 7.23685C75.5322 6.84648 74.704 6.64888 73.8657 6.66219C72.4385 6.66219 71.2644 7.13022 70.3435 8.06628C69.4227 9.00234 68.9622 10.1849 68.9622 11.6139C68.9622 13.0301 69.4303 14.1986 70.3665 15.1193C71.3027 16.04 72.5405 16.501 74.08 16.5023C75.2279 16.5023 76.1736 16.2469 76.9172 15.7361C77.6583 15.2427 78.2006 14.5022 78.4478 13.6463H73.9097V11.0335H81.4246Z" fill="#231F20"/>
<path d="M81.3769 10.9856V12.135C81.3769 14.2778 80.6919 16.0146 79.3221 17.3452C77.9523 18.6759 76.182 19.3432 74.0111 19.347C71.6975 19.347 69.7811 18.5929 68.2621 17.0847C67.523 16.3711 66.9391 15.5125 66.5467 14.5626C66.1543 13.6127 65.9619 12.5919 65.9816 11.5641C65.9606 10.533 66.1501 9.50834 66.5387 8.55312C66.9272 7.59789 67.5065 6.73218 68.241 6.00906C69.7473 4.49578 71.6165 3.73915 73.8485 3.73915C75.1847 3.72604 76.502 4.05578 77.6749 4.69692C78.7832 5.28893 79.7143 6.1656 80.3724 7.23692L77.8451 8.69465C77.4585 8.05194 76.898 7.53194 76.2285 7.19478C75.4863 6.80441 74.6581 6.60682 73.8198 6.62012C72.3926 6.62012 71.2185 7.08815 70.2977 8.02421C69.3768 8.96027 68.9164 10.1428 68.9164 11.5718C68.9164 12.988 69.3844 14.1565 70.3206 15.0772C71.2568 15.998 72.4965 16.4564 74.0398 16.4526C75.1877 16.4526 76.1335 16.1972 76.8771 15.6864C77.6181 15.193 78.1604 14.4525 78.4076 13.5965H73.8619V10.9856H81.3769Z" fill="#231F20"/>
<path d="M81.329 10.9378V12.0871C81.329 14.2299 80.6441 15.9667 79.2743 17.2974C77.9044 18.628 76.1341 19.2953 73.9633 19.2991C71.6496 19.2991 69.7333 18.545 68.2142 17.0368C67.4752 16.3233 66.8912 15.4646 66.4988 14.5147C66.1064 13.5648 65.914 12.544 65.9337 11.5162C65.9127 10.4851 66.1023 9.46045 66.4908 8.50523C66.8793 7.55 67.4586 6.68429 68.1932 5.96117C69.6995 4.44662 71.5661 3.68934 73.793 3.68934C75.1292 3.67624 76.4465 4.00597 77.6194 4.64711C78.7277 5.23913 79.6588 6.11579 80.3169 7.18712L77.7896 8.64485C77.403 8.00214 76.8425 7.48214 76.173 7.14498C75.4308 6.7546 74.6026 6.55701 73.7643 6.57032C72.3371 6.57032 71.163 7.03835 70.2422 7.97441C69.3213 8.91047 68.8653 10.0911 68.8742 11.5162C68.8742 12.9325 69.3423 14.101 70.2785 15.0217C71.2147 15.9424 72.4525 16.4034 73.992 16.4047C75.1399 16.4047 76.0856 16.1493 76.8292 15.6385C77.5703 15.1451 78.1126 14.4046 78.3598 13.5486H73.8141V10.9378H81.329Z" fill="#231F20"/>
<path d="M81.2812 10.8899V12.0392C81.2812 14.182 80.5962 15.9188 79.2264 17.2495C77.8566 18.5801 76.0863 19.2474 73.9154 19.2512C71.6018 19.2512 69.6854 18.4971 68.1663 16.9889C67.4273 16.2754 66.8434 15.4167 66.4509 14.4668C66.0585 13.5169 65.8662 12.4961 65.8858 11.4684C65.8649 10.4372 66.0544 9.41256 66.443 8.45734C66.8315 7.50211 67.4108 6.6364 68.1453 5.91328C69.6516 4.39745 71.5182 3.63954 73.7452 3.63954C75.0814 3.62643 76.3987 3.95617 77.5715 4.59731C78.6799 5.18932 79.6109 6.06599 80.2691 7.13732L77.7418 8.59504C77.3578 7.95031 76.7993 7.42763 76.1309 7.08751C75.3887 6.69714 74.5605 6.49955 73.7222 6.51285C72.295 6.51285 71.1209 6.98088 70.2001 7.91694C69.2792 8.853 68.8187 10.0355 68.8187 11.4645C68.8187 12.8807 69.2868 14.0492 70.223 14.97C71.1592 15.8907 72.397 16.3517 73.9365 16.353C75.0844 16.353 76.0301 16.0976 76.7737 15.5868C77.5148 15.0934 78.0571 14.3529 78.3043 13.4969H73.7662V10.8899H81.2812Z" fill="#231F20"/>
<path d="M81.2334 10.842V11.9914C81.2334 14.1342 80.5484 15.871 79.1786 17.2016C77.8088 18.5323 76.0385 19.1996 73.8676 19.2034C71.554 19.2034 69.6376 18.4493 68.1186 16.9411C67.3795 16.2275 66.7956 15.3689 66.4032 14.419C66.0108 13.4691 65.8184 12.4483 65.8381 11.4205C65.8171 10.3894 66.0066 9.36475 66.3952 8.40952C66.7837 7.4543 67.363 6.58859 68.0975 5.86547C69.6038 4.35092 71.4704 3.59364 73.6974 3.59364C75.0336 3.58054 76.3509 3.91027 77.5237 4.55141C78.6337 5.14154 79.5668 6.01691 80.227 7.08759L77.6997 8.54531C77.313 7.9026 76.7526 7.3826 76.0831 7.04544C75.3409 6.65507 74.5127 6.45748 73.6744 6.47078C72.2472 6.47078 71.0731 6.93881 70.1523 7.87487C69.2314 8.81094 68.771 9.99346 68.771 11.4225C68.771 12.8387 69.239 14.0072 70.1752 14.9279C71.1114 15.8486 72.3492 16.3096 73.8887 16.3109C75.0366 16.3109 75.9823 16.0555 76.7259 15.5447C77.467 15.0513 78.0093 14.3108 78.2565 13.4548H73.7184V10.842H81.2334Z" fill="#231F20"/>
<path d="M81.1855 10.794V11.9433C81.1855 14.0862 80.5006 15.8229 79.1308 17.1536C77.7609 18.4843 75.9906 19.1515 73.8198 19.1553C71.5061 19.1553 69.5898 18.4012 68.0707 16.8931C67.3317 16.1795 66.7477 15.3209 66.3553 14.371C65.9629 13.421 65.7705 12.4003 65.7902 11.3725C65.7692 10.3413 65.9588 9.31669 66.3473 8.36147C66.7358 7.40624 67.3151 6.54053 68.0497 5.81741C69.556 4.30413 71.4251 3.54749 73.6572 3.54749C74.9934 3.53439 76.3107 3.86413 77.4835 4.50527C78.5919 5.09728 79.5229 5.97395 80.1811 7.04527L77.6538 8.503C77.2671 7.86029 76.7066 7.34029 76.0372 7.00313C75.295 6.61276 74.4668 6.41517 73.6285 6.42847C72.2013 6.42847 71.0272 6.8965 70.1063 7.83256C69.1855 8.76862 68.725 9.95115 68.725 11.3801C68.725 12.7964 69.1931 13.9649 70.1293 14.8856C71.0655 15.8063 72.3052 16.2648 73.8485 16.2609C74.9964 16.2609 75.9421 16.0055 76.6857 15.4947C77.4268 15.0013 77.9691 14.2608 78.2163 13.4049H73.6706V10.794H81.1855Z" fill="#231F20"/>
<path d="M81.1377 10.7461V11.8954C81.1377 14.0383 80.4528 15.775 79.083 17.1057C77.7131 18.4364 75.9428 19.1036 73.772 19.1074C71.4583 19.1074 69.542 18.3534 68.0229 16.8452C67.2839 16.1316 66.6999 15.273 66.3075 14.3231C65.9151 13.3731 65.7227 12.3524 65.7424 11.3246C65.7214 10.2934 65.911 9.2688 66.2995 8.31358C66.688 7.35835 67.2673 6.49264 68.0019 5.76952C69.5082 4.25497 71.3748 3.49769 73.6017 3.49769C74.9379 3.48459 76.2552 3.81432 77.4281 4.45546C78.5364 5.04748 79.4675 5.92414 80.1257 6.99547L77.5984 8.4532C77.2117 7.81049 76.6512 7.29049 75.9817 6.95333C75.2395 6.56295 74.4113 6.36536 73.573 6.37867C72.1458 6.37867 70.9718 6.8467 70.0509 7.78276C69.13 8.71882 68.674 9.89943 68.683 11.3246C68.683 12.7408 69.1511 13.9093 70.0872 14.83C71.0234 15.7508 72.2612 16.2118 73.8007 16.2131C74.9486 16.2131 75.8943 15.9577 76.6379 15.4468C77.379 14.9534 77.9213 14.213 78.1685 13.357H73.6228V10.7461H81.1377Z" fill="#231F20"/>
<path d="M81.0899 10.6982V11.8475C81.0899 13.9904 80.405 15.7271 79.0351 17.0578C77.6653 18.3885 75.895 19.0557 73.7242 19.0596C71.4105 19.0596 69.4941 18.3055 67.9751 16.7973C67.236 16.0837 66.6521 15.2251 66.2597 14.2752C65.8673 13.3253 65.6749 12.3045 65.6946 11.2767C65.6736 10.2455 65.8631 9.22091 66.2517 8.26569C66.6402 7.31046 67.2195 6.44475 67.954 5.72163C69.4603 4.2058 71.3269 3.44789 73.5539 3.44789C74.8901 3.43478 76.2074 3.76452 77.3802 4.40566C78.4886 4.99767 79.4196 5.87434 80.0778 6.94566L77.5505 8.40339C77.1665 7.75866 76.608 7.23598 75.9396 6.89586C75.1974 6.50549 74.3692 6.30789 73.5309 6.3212C72.1037 6.3212 70.9296 6.78923 70.0088 7.72529C69.0879 8.66135 68.6275 9.84388 68.6275 11.2729C68.6275 12.6891 69.0955 13.8576 70.0317 14.7783C70.9679 15.6991 72.2057 16.1601 73.7452 16.1613C74.8931 16.1613 75.8388 15.9059 76.5824 15.3951C77.3235 14.9017 77.8658 14.1612 78.113 13.3053H73.5749V10.6982H81.0899Z" fill="#231F20"/>
<path d="M81.042 10.6504V11.7997C81.042 13.9426 80.3571 15.6793 78.9873 17.01C77.6174 18.3407 75.8471 19.0079 73.6763 19.0117C71.3626 19.0117 69.4463 18.2577 67.9272 16.7495C67.1882 16.0359 66.6042 15.1773 66.2118 14.2274C65.8194 13.2774 65.627 12.2567 65.6467 11.2289C65.6257 10.1977 65.8153 9.1731 66.2038 8.21787C66.5923 7.26265 67.1716 6.39694 67.9062 5.67382C69.4125 4.15926 71.2791 3.40199 73.506 3.40199C74.8422 3.38889 76.1595 3.71862 77.3324 4.35976C78.4424 4.94989 79.3754 5.82526 80.0357 6.89594L77.5084 8.35366C77.1217 7.71095 76.5612 7.19095 75.8918 6.85379C75.1495 6.46342 74.3213 6.26583 73.4831 6.27913C72.0558 6.27913 70.8818 6.74716 69.9609 7.68322C69.04 8.61929 68.5796 9.80181 68.5796 11.2308C68.5796 12.647 69.0477 13.8155 69.9839 14.7362C70.9201 15.657 72.1579 16.118 73.6973 16.1193C74.8452 16.1193 75.791 15.8639 76.5346 15.3531C77.2756 14.8597 77.8179 14.1192 78.0651 13.2632H73.5271V10.6504H81.042Z" fill="#231F20"/>
<path d="M80.9942 10.6026V11.7519C80.9942 13.8948 80.3093 15.6315 78.9395 16.9622C77.5696 18.2928 75.7993 18.9601 73.6285 18.9639C71.3148 18.9639 69.3985 18.2098 67.8794 16.7017C67.1404 15.9881 66.5564 15.1295 66.164 14.1796C65.7716 13.2296 65.5792 12.2089 65.5989 11.1811C65.5779 10.1499 65.7675 9.12528 66.156 8.17006C66.5446 7.21483 67.1238 6.34913 67.8584 5.62601C69.3647 4.11273 71.2339 3.35609 73.4659 3.35609C74.8021 3.34299 76.1194 3.67272 77.2922 4.31386C78.4006 4.90587 79.3317 5.78254 79.9898 6.85387L77.4625 8.3116C77.0758 7.66889 76.5153 7.14889 75.8459 6.81173C75.1037 6.42135 74.2755 6.22376 73.4372 6.23706C72.01 6.23706 70.8359 6.70509 69.915 7.64116C68.9942 8.57722 68.5337 9.75975 68.5337 11.1887C68.5337 12.605 69.0018 13.7734 69.938 14.6942C70.8742 15.6149 72.1139 16.0734 73.6572 16.0695C74.8051 16.0695 75.7509 15.8141 76.4944 15.3033C77.2355 14.8099 77.7778 14.0694 78.025 13.2135H73.4793V10.6026H80.9942Z" fill="#231F20"/>
<path d="M80.9464 10.5547V11.704C80.9464 13.8469 80.2615 15.5836 78.8916 16.9143C77.5218 18.245 75.7515 18.9122 73.5807 18.916C71.267 18.916 69.3506 18.162 67.8316 16.6538C67.0926 15.9402 66.5086 15.0816 66.1162 14.1317C65.7238 13.1817 65.5314 12.161 65.5511 11.1332C65.5301 10.102 65.7197 9.07739 66.1082 8.12217C66.4967 7.16695 67.076 6.30124 67.8105 5.57812C69.3168 4.06356 71.1835 3.30628 73.4104 3.30628C74.7466 3.29318 76.0639 3.62291 77.2367 4.26405C78.3451 4.85607 79.2761 5.73274 79.9343 6.80406L77.407 8.26179C77.0203 7.61908 76.4598 7.09908 75.7904 6.76192C75.0482 6.37155 74.22 6.17395 73.3817 6.18726C71.9545 6.18726 70.7804 6.65529 69.8595 7.59135C68.9387 8.52741 68.4827 9.70803 68.4916 11.1332C68.4916 12.5494 68.9597 13.7179 69.8959 14.6386C70.8321 15.5594 72.0699 16.0204 73.6094 16.0217C74.7573 16.0217 75.703 15.7662 76.4466 15.2554C77.1876 14.762 77.7299 14.0216 77.9771 13.1656H73.4314V10.5547H80.9464Z" fill="#231F20"/>
<path d="M80.8985 10.5068V11.6561C80.8985 13.799 80.2136 15.5357 78.8438 16.8664C77.4739 18.1971 75.7036 18.8643 73.5328 18.8681C71.2191 18.8681 69.3028 18.1141 67.7837 16.6059C67.0447 15.8923 66.4607 15.0337 66.0683 14.0838C65.6759 13.1339 65.4835 12.1131 65.5032 11.0853C65.4822 10.0541 65.6718 9.02951 66.0603 8.07428C66.4489 7.11906 67.0281 6.25335 67.7627 5.53023C69.269 4.0144 71.1356 3.25648 73.3625 3.25648C74.6987 3.24338 76.016 3.57311 77.1889 4.21425C78.2972 4.80626 79.2283 5.68293 79.8865 6.75426L77.3592 8.21199C76.9751 7.56725 76.4166 7.04458 75.7483 6.70445C75.0061 6.31408 74.1779 6.11649 73.3396 6.12979C71.9123 6.12979 70.7383 6.59782 69.8174 7.53389C68.8965 8.46995 68.4361 9.65247 68.4361 11.0815C68.4361 12.4977 68.9042 13.6662 69.8404 14.5869C70.7766 15.5076 72.0144 15.9687 73.5539 15.9699C74.7018 15.9699 75.6475 15.7145 76.3911 15.2037C77.1321 14.7103 77.6744 13.9698 77.9216 13.1139H73.3836V10.5068H80.8985Z" fill="#231F20"/>
<path d="M80.8507 10.4587V11.6081C80.8507 13.7509 80.1658 15.4877 78.796 16.8183C77.4262 18.149 75.6558 18.8163 73.485 18.8201C71.1714 18.8201 69.255 18.066 67.7359 16.5578C66.9969 15.8442 66.4129 14.9856 66.0205 14.0357C65.6281 13.0858 65.4357 12.065 65.4554 11.0372C65.4344 10.0061 65.624 8.98145 66.0125 8.02622C66.4011 7.071 66.9804 6.20529 67.7149 5.48217C69.2212 3.96761 71.0878 3.21034 73.3147 3.21034C74.6509 3.19724 75.9682 3.52697 77.1411 4.16811C78.2511 4.75824 79.1841 5.63361 79.8444 6.70429L77.3171 8.16201C76.9304 7.5193 76.3699 6.9993 75.7005 6.66214C74.9583 6.27177 74.1301 6.07418 73.2918 6.08748C71.8646 6.08748 70.6905 6.55551 69.7696 7.49157C68.8488 8.42763 68.3883 9.61016 68.3883 11.0392C68.3883 12.4554 68.8564 13.6239 69.7926 14.5446C70.7288 15.4653 71.9666 15.9263 73.5061 15.9276C74.654 15.9276 75.5997 15.6722 76.3433 15.1614C77.0843 14.668 77.6266 13.9275 77.8738 13.0715H73.3358V10.4587H80.8507Z" fill="#231F20"/>
<path d="M80.8029 10.4109V11.5603C80.8029 13.7031 80.118 15.4399 78.7481 16.7705C77.3783 18.1012 75.608 18.7684 73.4372 18.7723C71.1235 18.7723 69.2071 18.0182 67.6881 16.51C66.9491 15.7964 66.3651 14.9378 65.9727 13.9879C65.5803 13.038 65.3879 12.0172 65.4076 10.9894C65.3866 9.95824 65.5762 8.93363 65.9647 7.97841C66.3532 7.02318 66.9325 6.15748 67.667 5.43436C69.1733 3.92108 71.0425 3.16444 73.2745 3.16444C74.6108 3.15134 75.928 3.48107 77.1009 4.12221C78.2093 4.71422 79.1403 5.59089 79.7985 6.66222L77.2712 8.11995C76.8845 7.47723 76.324 6.95724 75.6545 6.62008C74.9123 6.2297 74.0841 6.03211 73.2458 6.04541C71.8186 6.04541 70.6446 6.51344 69.7237 7.44951C68.8028 8.38557 68.3424 9.5681 68.3424 10.9971C68.3424 12.4133 68.8105 13.5818 69.7467 14.5025C70.6828 15.4233 71.9226 15.8817 73.4659 15.8779C74.6138 15.8779 75.5595 15.6225 76.3031 15.1117C77.0441 14.6183 77.5864 13.8778 77.8336 13.0218H73.2879V10.4109H80.8029Z" fill="#231F20"/>
<path d="M80.755 10.363V11.5124C80.755 13.6552 80.0701 15.392 78.7003 16.7226C77.3304 18.0533 75.5601 18.7206 73.3893 18.7244C71.0757 18.7244 69.1593 17.9703 67.6402 16.4621C66.9012 15.7485 66.3172 14.8899 65.9248 13.94C65.5324 12.9901 65.34 11.9693 65.3597 10.9415C65.3387 9.91036 65.5283 8.88574 65.9168 7.93052C66.3054 6.9753 66.8846 6.10959 67.6192 5.38647C69.1255 3.87191 70.9921 3.11463 73.219 3.11463C74.5552 3.10153 75.8725 3.43126 77.0454 4.0724C78.1537 4.66442 79.0848 5.54109 79.743 6.61241L77.2157 8.07014C76.829 7.42743 76.2685 6.90743 75.599 6.57027C74.8568 6.1799 74.0286 5.9823 73.1903 5.99561C71.7631 5.99561 70.5891 6.46364 69.6682 7.3997C68.7473 8.33576 68.2913 9.51638 68.3003 10.9415C68.3003 12.3578 68.7684 13.5262 69.7045 14.447C70.6407 15.3677 71.8785 15.8287 73.418 15.83C74.5659 15.83 75.5117 15.5746 76.2552 15.0638C76.9963 14.5704 77.5386 13.8299 77.7858 12.9739H73.2401V10.363H80.755Z" fill="#231F20"/>
<path d="M80.7072 10.3152V11.4645C80.7072 13.6073 80.0223 15.3441 78.6525 16.6748C77.2827 18.0054 75.5123 18.6727 73.3415 18.6765C71.0279 18.6765 69.1115 17.9224 67.5924 16.4142C66.8534 15.7007 66.2694 14.842 65.877 13.8921C65.4846 12.9422 65.2923 11.9214 65.3119 10.8936C65.2909 9.86247 65.4805 8.83785 65.869 7.88263C66.2576 6.92741 66.8369 6.0617 67.5714 5.33858C69.0777 3.82275 70.9443 3.06483 73.1712 3.06483C74.5075 3.05173 75.8247 3.38146 76.9976 4.0226C78.106 4.61461 79.037 5.49128 79.6952 6.56261L77.1679 8.02034C76.7839 7.3756 76.2253 6.85293 75.557 6.5128C74.8148 6.12243 73.9866 5.92484 73.1483 5.93814C71.7211 5.93814 70.547 6.40617 69.6261 7.34223C68.7053 8.2783 68.2448 9.46082 68.2448 10.8898C68.2448 12.306 68.7129 13.4745 69.6491 14.3953C70.5853 15.316 71.8231 15.777 73.3626 15.7783C74.5105 15.7783 75.4562 15.5229 76.1998 15.0121C76.9408 14.5187 77.4832 13.7782 77.7303 12.9222H73.1923V10.3152H80.7072Z" fill="#231F20"/>
<path d="M80.6594 10.2673V11.4167C80.6594 13.5595 79.9745 15.2963 78.6046 16.6269C77.2348 17.9576 75.4645 18.6249 73.2937 18.6287C70.98 18.6287 69.0636 17.8746 67.5446 16.3664C66.8056 15.6528 66.2216 14.7942 65.8292 13.8443C65.4368 12.8944 65.2444 11.8736 65.2641 10.8458C65.2431 9.81465 65.4327 8.79004 65.8212 7.83482C66.2097 6.87959 66.789 6.01388 67.5235 5.29076C69.0298 3.77621 70.8965 3.01893 73.1234 3.01893C74.4596 3.00583 75.7769 3.33556 76.9497 3.9767C78.0597 4.56683 78.9928 5.4422 79.6531 6.51288L77.1258 7.97061C76.7391 7.3279 76.1786 6.8079 75.5091 6.47074C74.7669 6.08036 73.9387 5.88277 73.1004 5.89607C71.6732 5.89607 70.4992 6.36411 69.5783 7.30017C68.6574 8.23623 68.197 9.41876 68.197 10.8478C68.197 12.264 68.6651 13.4325 69.6012 14.3532C70.5374 15.2739 71.7752 15.7349 73.3147 15.7362C74.4626 15.7362 75.4084 15.4808 76.152 14.97C76.893 14.4766 77.4353 13.7361 77.6825 12.8801H73.1444V10.2673H80.6594Z" fill="#231F20"/>
<path d="M80.6116 10.2195V11.3689C80.6116 13.5117 79.9267 15.2485 78.5568 16.5791C77.187 17.9098 75.4167 18.577 73.2459 18.5809C70.9322 18.5809 69.0159 17.8268 67.4968 16.3186C66.7578 15.605 66.1738 14.7464 65.7814 13.7965C65.389 12.8466 65.1966 11.8258 65.2163 10.798C65.1953 9.76684 65.3849 8.74223 65.7734 7.787C66.1619 6.83178 66.7412 5.96607 67.4758 5.24295C68.9821 3.72839 70.8512 2.97175 73.0833 2.97303C74.4195 2.95993 75.7368 3.28966 76.9096 3.9308C78.018 4.52282 78.949 5.39948 79.6072 6.47081L77.0799 7.92854C76.6932 7.28583 76.1327 6.76583 75.4633 6.42867C74.721 6.0383 73.8928 5.8407 73.0546 5.85401C71.6273 5.85401 70.4533 6.32204 69.5324 7.2581C68.6115 8.19416 68.1511 9.37669 68.1511 10.8057C68.1511 12.2219 68.6192 13.3904 69.5554 14.3111C70.4915 15.2319 71.7313 15.6903 73.2746 15.6865C74.4225 15.6865 75.3682 15.4311 76.1118 14.9203C76.8529 14.4269 77.3952 13.6864 77.6424 12.8304H73.0967V10.2195H80.6116Z" fill="#231F20"/>
<path d="M80.5637 10.1716V11.321C80.5637 13.4638 79.8788 15.2006 78.509 16.5312C77.1392 17.8619 75.3688 18.5291 73.198 18.533C70.8844 18.533 68.968 17.7789 67.4489 16.2707C66.7099 15.5571 66.1259 14.6985 65.7335 13.7486C65.3411 12.7987 65.1488 11.7779 65.1684 10.7501C65.1474 9.71895 65.337 8.69434 65.7255 7.73911C66.1141 6.78389 66.6934 5.91818 67.4279 5.19506C68.9342 3.68051 70.8008 2.92323 73.0278 2.92323C74.364 2.91013 75.6813 3.23986 76.8541 3.881C77.9625 4.47301 78.8935 5.34968 79.5517 6.42101L77.0244 7.87873C76.6377 7.23602 76.0772 6.71603 75.4077 6.37886C74.6655 5.98849 73.8373 5.7909 72.9991 5.8042C71.5718 5.8042 70.3978 6.27223 69.4769 7.20829C68.556 8.14436 68.1001 9.32497 68.109 10.7501C68.109 12.1664 68.5771 13.3348 69.5133 14.2556C70.4494 15.1763 71.6873 15.6373 73.2267 15.6386C74.3746 15.6386 75.3204 15.3832 76.064 14.8724C76.805 14.379 77.3473 13.6385 77.5945 12.7825H73.0488V10.1716H80.5637Z" fill="#231F20"/>
<path d="M80.5159 10.1237V11.2731C80.5159 13.4159 79.831 15.1527 78.4611 16.4833C77.0913 17.814 75.321 18.4813 73.1502 18.4851C70.8365 18.4851 68.9201 17.731 67.4011 16.2228C66.6621 15.5092 66.0781 14.6506 65.6857 13.7007C65.2933 12.7508 65.1009 11.73 65.1206 10.7022C65.0996 9.67106 65.2892 8.64645 65.6777 7.69122C66.0662 6.736 66.6455 5.87029 67.38 5.14717C68.8864 3.63134 70.753 2.87342 72.9799 2.87342C74.3161 2.86032 75.6334 3.19005 76.8063 3.83119C77.9146 4.42321 78.8457 5.29987 79.5038 6.3712L76.9765 7.82893C76.5925 7.1842 76.034 6.66152 75.3656 6.3214C74.6234 5.93102 73.7952 5.73343 72.9569 5.74674C71.5297 5.74674 70.3557 6.21477 69.4348 7.15083C68.5139 8.08689 68.0535 9.26942 68.0535 10.6984C68.0535 12.1146 68.5216 13.2831 69.4578 14.2039C70.3939 15.1246 71.6318 15.5856 73.1712 15.5869C74.3191 15.5869 75.2649 15.3315 76.0085 14.8207C76.7495 14.3273 77.2918 13.5868 77.539 12.7308H73.001V10.1237H80.5159Z" fill="#231F20"/>
<path d="M80.4681 10.0757V11.225C80.4681 13.3679 79.7832 15.1046 78.4134 16.4353C77.0435 17.766 75.2732 18.4332 73.1024 18.437C70.7887 18.437 68.8724 17.6829 67.3533 16.1748C66.6143 15.4612 66.0303 14.6026 65.6379 13.6527C65.2455 12.7027 65.0531 11.682 65.0728 10.6542C65.0518 9.623 65.2414 8.59839 65.6299 7.64317C66.0184 6.68794 66.5977 5.82223 67.3323 5.09911C68.8386 3.58456 70.7052 2.82728 72.9321 2.82728C74.2683 2.81418 75.5856 3.14391 76.7585 3.78505C77.8684 4.37518 78.8015 5.25055 79.4618 6.32123L76.9345 7.77896C76.5478 7.13625 75.9873 6.61625 75.3178 6.27909C74.5756 5.88871 73.7474 5.69112 72.9092 5.70442C71.4819 5.70442 70.3079 6.17245 69.387 7.10852C68.4661 8.04458 68.0057 9.22711 68.0057 10.6561C68.0057 12.0723 68.4738 13.2408 69.41 14.1615C70.3461 15.0823 71.584 15.5433 73.1234 15.5446C74.2713 15.5446 75.2171 15.2892 75.9607 14.7783C76.7017 14.285 77.244 13.5445 77.4912 12.6885H72.9532V10.0757H80.4681Z" fill="#231F20"/>
<path d="M80.4203 10.0279V11.1772C80.4203 13.3201 79.7353 15.0568 78.3655 16.3875C76.9957 17.7181 75.2254 18.3854 73.0545 18.3892C70.7409 18.3892 68.8245 17.6351 67.3054 16.127C66.5664 15.4134 65.9825 14.5548 65.59 13.6048C65.1976 12.6549 65.0053 11.6341 65.0249 10.6064C65.004 9.57519 65.1935 8.55058 65.5821 7.59535C65.9706 6.64013 66.5499 5.77442 67.2844 5.0513C68.7907 3.53674 70.6599 2.7801 72.8919 2.78138C74.2281 2.76828 75.5454 3.09801 76.7183 3.73915C77.8266 4.33117 78.7577 5.20783 79.4158 6.27916L76.8885 7.73689C76.5019 7.09418 75.9414 6.57418 75.2719 6.23702C74.5297 5.84664 73.7015 5.64905 72.8632 5.66236C71.436 5.66236 70.2619 6.13039 69.3411 7.06645C68.4202 8.00251 67.9598 9.18504 67.9598 10.614C67.9598 12.0303 68.4278 13.1987 69.364 14.1195C70.3002 15.0402 71.5399 15.4987 73.0832 15.4948C74.2311 15.4948 75.1769 15.2394 75.9205 14.7286C76.6615 14.2352 77.2038 13.4947 77.451 12.6388H72.9053V10.0279H80.4203Z" fill="#231F20"/>
<path d="M80.3724 9.97999V11.1293C80.3724 13.2722 79.6875 15.0089 78.3177 16.3396C76.9478 17.6703 75.1775 18.3375 73.0067 18.3413C70.693 18.3413 68.7767 17.5872 67.2576 16.0791C66.5186 15.3655 65.9346 14.5069 65.5422 13.557C65.1498 12.607 64.9574 11.5863 64.9771 10.5585C64.9561 9.5273 65.1457 8.50269 65.5342 7.54746C65.9227 6.59224 66.502 5.72653 67.2366 5.00341C68.7429 3.48885 70.6095 2.73158 72.8364 2.73158C74.1726 2.71848 75.4899 3.04821 76.6628 3.68935C77.7711 4.28136 78.7022 5.15803 79.3603 6.22936L76.833 7.68708C76.4463 7.04437 75.8859 6.52437 75.2164 6.18721C74.4742 5.79684 73.646 5.59925 72.8077 5.61255C71.3805 5.61255 70.2064 6.08058 69.2856 7.01664C68.3647 7.95271 67.9087 9.13332 67.9176 10.5585C67.9176 11.9747 68.3857 13.1432 69.3219 14.0639C70.2581 14.9847 71.4959 15.4457 73.0354 15.4469C74.1833 15.4469 75.129 15.1915 75.8726 14.6807C76.6137 14.1873 77.156 13.4468 77.4032 12.5909H72.8575V9.97999H80.3724Z" fill="#231F20"/>
<path d="M80.3246 9.9321V11.0814C80.3246 13.2243 79.6397 14.961 78.2699 16.2917C76.9 17.6224 75.1297 18.2896 72.9589 18.2934C70.6452 18.2934 68.7289 17.5394 67.2098 16.0312C66.4708 15.3176 65.8868 14.459 65.4944 13.5091C65.102 12.5591 64.9096 11.5384 64.9293 10.5106C64.9083 9.47941 65.0979 8.4548 65.4864 7.49957C65.8749 6.54435 66.4542 5.67864 67.1888 4.95552C68.6951 3.43969 70.5617 2.68177 72.7886 2.68177C74.1248 2.66867 75.4421 2.9984 76.615 3.63954C77.7233 4.23156 78.6544 5.10822 79.3125 6.17955L76.7852 7.63728C76.4012 6.99255 75.8427 6.46987 75.1743 6.12975C74.4321 5.73937 73.6039 5.54178 72.7657 5.55509C71.3384 5.55509 70.1644 6.02312 69.2435 6.95918C68.3226 7.89524 67.8622 9.07777 67.8622 10.5068C67.8622 11.923 68.3303 13.0915 69.2665 14.0122C70.2026 14.9329 71.4405 15.3939 72.9799 15.3952C74.1278 15.3952 75.0736 15.1398 75.8172 14.629C76.5582 14.1356 77.1005 13.3951 77.3477 12.5392H72.8097V9.9321H80.3246Z" fill="#231F20"/>
<path d="M80.3246 9.9321V11.0814C80.3246 13.2243 79.6397 14.961 78.2699 16.2917C76.9 17.6224 75.1297 18.2896 72.9589 18.2934C70.6452 18.2934 68.7289 17.5394 67.2098 16.0312C66.4708 15.3176 65.8868 14.459 65.4944 13.5091C65.102 12.5591 64.9096 11.5384 64.9293 10.5106C64.9083 9.47941 65.0979 8.4548 65.4864 7.49957C65.8749 6.54435 66.4542 5.67864 67.1888 4.95552C68.6951 3.43969 70.5617 2.68177 72.7886 2.68177C74.1248 2.66867 75.4421 2.9984 76.615 3.63954C77.7233 4.23156 78.6544 5.10822 79.3125 6.17955L76.7852 7.63728C76.4012 6.99255 75.8427 6.46987 75.1743 6.12975C74.4321 5.73937 73.6039 5.54178 72.7657 5.55509C71.3384 5.55509 70.1644 6.02312 69.2435 6.95918C68.3226 7.89524 67.8622 9.07777 67.8622 10.5068C67.8622 11.923 68.3303 13.0915 69.2665 14.0122C70.2026 14.9329 71.4405 15.3939 72.9799 15.3952C74.1278 15.3952 75.0736 15.1398 75.8172 14.629C76.5582 14.1356 77.1005 13.3951 77.3477 12.5392H72.8097V9.9321H80.3246Z" fill="white"/>
<path d="M80.3246 9.9321V11.0814C80.3246 13.2243 79.6397 14.961 78.2699 16.2917C76.9 17.6224 75.1297 18.2896 72.9589 18.2934C70.6452 18.2934 68.7289 17.5394 67.2098 16.0312C66.4708 15.3176 65.8868 14.459 65.4944 13.5091C65.102 12.5591 64.9096 11.5384 64.9293 10.5106C64.9083 9.47941 65.0979 8.4548 65.4864 7.49957C65.8749 6.54435 66.4542 5.67864 67.1888 4.95552C68.6951 3.43969 70.5617 2.68177 72.7886 2.68177C74.1248 2.66867 75.4421 2.9984 76.615 3.63954C77.7233 4.23156 78.6544 5.10822 79.3125 6.17955L76.7852 7.63728C76.4012 6.99255 75.8427 6.46987 75.1743 6.12975C74.4321 5.73937 73.6039 5.54178 72.7657 5.55509C71.3384 5.55509 70.1644 6.02312 69.2435 6.95918C68.3226 7.89524 67.8622 9.07777 67.8622 10.5068C67.8622 11.923 68.3303 13.0915 69.2665 14.0122C70.2026 14.9329 71.4405 15.3939 72.9799 15.3952C74.1278 15.3952 75.0736 15.1398 75.8172 14.629C76.5582 14.1356 77.1005 13.3951 77.3477 12.5392H72.8097V9.9321H80.3246Z" stroke="#231F20" stroke-miterlimit="10"/>
<path d="M86.1674 4.18359H89.1233V19.19H86.1674V4.18359Z" fill="#231F20"/>
<path d="M86.1196 4.13574H89.0755V19.1421H86.1196V4.13574Z" fill="#231F20"/>
<path d="M86.0718 4.08765H89.0276V19.094H86.0718V4.08765Z" fill="#231F20"/>
<path d="M86.0239 4.03979H88.9798V19.0462H86.0239V4.03979Z" fill="#231F20"/>
<path d="M85.9761 3.99194H88.932V18.9983H85.9761V3.99194Z" fill="#231F20"/>
<path d="M85.9283 3.94409H88.8841V18.9504H85.9283V3.94409Z" fill="#231F20"/>
<path d="M85.8804 3.89624H88.8363V18.9026H85.8804V3.89624Z" fill="#231F20"/>
<path d="M85.8326 3.84839H88.7885V18.8547H85.8326V3.84839Z" fill="#231F20"/>
<path d="M85.7848 3.80054H88.7406V18.8069H85.7848V3.80054Z" fill="#231F20"/>
<path d="M85.7369 3.75244H88.6928V18.7588H85.7369V3.75244Z" fill="#231F20"/>
<path d="M85.6891 3.70459H88.645V18.7109H85.6891V3.70459Z" fill="#231F20"/>
<path d="M85.6413 3.65674H88.5971V18.6631H85.6413V3.65674Z" fill="#231F20"/>
<path d="M85.5935 3.60889H88.5494V18.6152H85.5935V3.60889Z" fill="#231F20"/>
<path d="M85.5457 3.56104H88.5015V18.5674H85.5457V3.56104Z" fill="#231F20"/>
<path d="M85.4978 3.51318H88.4537V18.5195H85.4978V3.51318Z" fill="#231F20"/>
<path d="M85.45 3.46533H88.4059V18.4717H85.45V3.46533Z" fill="#231F20"/>
<path d="M85.4022 3.41724H88.358V18.4236H85.4022V3.41724Z" fill="#231F20"/>
<path d="M85.3543 3.36938H88.3102V18.3757H85.3543V3.36938Z" fill="#231F20"/>
<path d="M85.3065 3.32153H88.2624V18.3279H85.3065V3.32153Z" fill="#231F20"/>
<path d="M85.2587 3.27368H88.2145V18.28H85.2587V3.27368Z" fill="#231F20"/>
<path d="M85.2108 3.22583H88.1667V18.2322H85.2108V3.22583Z" fill="#231F20"/>
<path d="M85.163 3.17798H88.1189V18.1843H85.163V3.17798Z" fill="#231F20"/>
<path d="M85.1152 3.12988H88.071V18.1362H85.1152V3.12988Z" fill="#231F20"/>
<path d="M85.0674 3.08203H88.0232V18.0884H85.0674V3.08203Z" fill="#231F20"/>
<path d="M85.0195 3.03418H87.9754V18.0405H85.0195V3.03418Z" fill="#231F20"/>
<path d="M84.9717 2.98633H87.9275V17.9927H84.9717V2.98633Z" fill="#231F20"/>
<path d="M84.9717 2.98633H87.9275V17.9927H84.9717V2.98633Z" fill="white"/>
<path d="M84.9717 2.98633H87.9275V17.9927H84.9717V2.98633Z" stroke="#231F20" stroke-miterlimit="10"/>
<path d="M104.369 4.18359V7.01285H100.323V19.19H97.3672V7.01285H93.3495V4.18359H104.369Z" fill="#231F20"/>
<path d="M104.322 4.13574V6.965H100.275V19.1421H97.3193V6.965H93.3016V4.13574H104.322Z" fill="#231F20"/>
<path d="M104.268 4.08765V6.9169H100.227V19.094H97.2715V6.9169H93.2538V4.08765H104.268Z" fill="#231F20"/>
<path d="M104.226 4.03979V6.86905H100.18V19.0462H97.2237V6.86905H93.206V4.03979H104.226Z" fill="#231F20"/>
<path d="M104.178 3.99194V6.8212H100.132V18.9983H97.1758V6.8212H93.1581V3.99194H104.178Z" fill="#231F20"/>
<path d="M104.13 3.94409V6.77335H100.084V18.9504H97.128V6.77335H93.1104V3.94409H104.13Z" fill="#231F20"/>
<path d="M104.077 3.89624V6.7255H100.036V18.9026H97.0802V6.7255H93.0625V3.89624H104.077Z" fill="#231F20"/>
<path d="M104.035 3.84839V6.67764H99.9882V18.8547H97.0323V6.67764H93.0146V3.84839H104.035Z" fill="#231F20"/>
<path d="M103.987 3.80054V6.62979H99.9404V18.8069H96.9845V6.62979H92.9669V3.80054H103.987Z" fill="#231F20"/>
<path d="M103.939 3.75244V6.5817H99.8925V18.7588H96.9367V6.5817H92.919V3.75244H103.939Z" fill="#231F20"/>
<path d="M103.885 3.70459V6.53385H99.8447V18.7109H96.8889V6.53385H92.8712V3.70459H103.885Z" fill="#231F20"/>
<path d="M103.843 3.65674V6.48599H99.7969V18.6631H96.841V6.48599H92.8234V3.65674H103.843Z" fill="#231F20"/>
<path d="M103.795 3.60889V6.43814H99.749V18.6152H96.7932V6.43814H92.7755V3.60889H103.795Z" fill="#231F20"/>
<path d="M103.748 3.56104V6.39029H99.7012V18.5674H96.7453V6.39029H92.7277V3.56104H103.748Z" fill="#231F20"/>
<path d="M103.694 3.51318V6.34244H99.6534V18.5195H96.6975V6.34244H92.6799V3.51318H103.694Z" fill="#231F20"/>
<path d="M103.652 3.46533V6.29459H99.6055V18.4717H96.6497V6.29459H92.632V3.46533H103.652Z" fill="#231F20"/>
<path d="M103.604 3.41724V6.24649H99.5577V18.4236H96.6019V6.24649H92.5842V3.41724H103.604Z" fill="#231F20"/>
<path d="M103.556 3.36938V6.19864H99.5099V18.3757H96.554V6.19864H92.5364V3.36938H103.556Z" fill="#231F20"/>
<path d="M103.503 3.32153V6.15079H99.462V18.3279H96.5062V6.15079H92.4885V3.32153H103.503Z" fill="#231F20"/>
<path d="M103.461 3.27368V6.10294H99.4143V18.28H96.4584V6.10294H92.4407V3.27368H103.461Z" fill="#231F20"/>
<path d="M103.413 3.22583V6.05509H99.3664V18.2322H96.4105V6.05509H92.3929V3.22583H103.413Z" fill="#231F20"/>
<path d="M103.365 3.17798V6.00723H99.3186V18.1843H96.3628V6.00723H92.3451V3.17798H103.365Z" fill="#231F20"/>
<path d="M103.311 3.12988V5.95914H99.2708V18.1362H96.3149V5.95914H92.2972V3.12988H103.311Z" fill="#231F20"/>
<path d="M103.269 3.08203V5.91129H99.2229V18.0884H96.2671V5.91129H92.2494V3.08203H103.269Z" fill="#231F20"/>
<path d="M103.221 3.03418V5.86344H99.1751V18.0405H96.2193V5.86344H92.2016V3.03418H103.221Z" fill="#231F20"/>
<path d="M103.174 2.98633V5.81558H99.1273V17.9927H96.1714V5.81558H92.1537V2.98633H103.174Z" fill="#231F20"/>
<path d="M103.174 2.98633V5.81558H99.1273V17.9927H96.1714V5.81558H92.1537V2.98633H103.174Z" fill="white"/>
<path d="M103.174 2.98633V5.81558H99.1273V17.9927H96.1714V5.81558H92.1537V2.98633H103.174Z" stroke="#231F20" stroke-miterlimit="10"/>
<path d="M117.327 19.19L116.371 16.489H110.216L109.319 19.19H106.128L111.373 4.18359H115.035L120.321 19.19H117.327ZM111.18 13.723H115.389L113.225 7.59326L111.18 13.723Z" fill="#231F20"/>
<path d="M117.278 19.1421L116.321 16.4412H110.168L109.271 19.1421H106.08L111.326 4.13574H114.982L120.268 19.1421H117.278ZM111.132 13.6751H115.341L113.178 7.54541L111.132 13.6751Z" fill="#231F20"/>
<path d="M117.232 19.094L116.275 16.3931H110.12L109.223 19.094H106.032L111.278 4.08765H114.94L120.226 19.094H117.232ZM111.085 13.627H115.294L113.13 7.49731L111.085 13.627Z" fill="#231F20"/>
<path d="M117.184 19.0462L116.227 16.3452H110.073L109.175 19.0462H105.99L111.236 4.03979H114.898L120.184 19.0462H117.184ZM111.037 13.5792H115.246L113.082 7.44946L111.037 13.5792Z" fill="#231F20"/>
<path d="M117.136 18.9983L116.179 16.2974H110.025L109.127 18.9983H105.936L111.182 3.99194H114.844L120.13 18.9983H117.136ZM110.989 13.5313H115.198L113.034 7.40161L110.989 13.5313Z" fill="#231F20"/>
<path d="M117.086 18.9504L116.13 16.2495H109.977L109.08 18.9504H105.888L111.134 3.94409H114.79L120.077 18.9504H117.086ZM110.941 13.4835H115.15L112.986 7.35376L110.941 13.4835Z" fill="#231F20"/>
<path d="M117.04 18.9026L116.084 16.2017H109.929L109.032 18.9026H105.841L111.087 3.89624H114.748L120.034 18.9026H117.04ZM110.893 13.4356H115.102L112.938 7.30591L110.893 13.4356Z" fill="#231F20"/>
<path d="M116.993 18.8547L116.036 16.1538H109.881L108.984 18.8547H105.799L111.044 3.84839H114.706L119.992 18.8547H116.993ZM110.845 13.3878H115.054L112.891 7.25805L110.845 13.3878Z" fill="#231F20"/>
<path d="M116.945 18.8069L115.988 16.106H109.833L108.936 18.8069H105.745L110.991 3.80054H114.653L119.939 18.8069H116.945ZM110.798 13.3399H115.007L112.843 7.2102L110.798 13.3399Z" fill="#231F20"/>
<path d="M116.895 18.7588L115.938 16.0579H109.786L108.888 18.7588H105.697L110.943 3.75244H114.599L119.885 18.7588H116.895ZM110.75 13.2918H114.959L112.795 7.16211L110.75 13.2918Z" fill="#231F20"/>
<path d="M116.849 18.7109L115.892 16.01H109.738L108.84 18.7109H105.649L110.895 3.70459H114.557L119.843 18.7109H116.849ZM110.702 13.244H114.911L112.747 7.11425L110.702 13.244Z" fill="#231F20"/>
<path d="M116.801 18.6631L115.845 15.9622H109.69L108.793 18.6631H105.607L110.853 3.65674H114.515L119.801 18.6631H116.801ZM110.654 13.1961H114.863L112.699 7.0664L110.654 13.1961Z" fill="#231F20"/>
<path d="M116.753 18.6152L115.797 15.9143H109.642L108.745 18.6152H105.554L110.8 3.60889H114.461L119.747 18.6152H116.753ZM110.606 13.1483H114.815L112.651 7.01855L110.606 13.1483Z" fill="#231F20"/>
<path d="M116.704 18.5674L115.747 15.8665H109.594L108.697 18.5674H105.506L110.752 3.56104H114.408L119.694 18.5674H116.704ZM110.558 13.1004H114.767L112.604 6.9707L110.558 13.1004Z" fill="#231F20"/>
<path d="M116.658 18.5195L115.701 15.8186H109.546L108.649 18.5195H105.458L110.704 3.51318H114.366L119.652 18.5195H116.658ZM110.511 13.0526H114.72L112.556 6.92285L110.511 13.0526Z" fill="#231F20"/>
<path d="M116.61 18.4717L115.653 15.7708H109.499L108.601 18.4717H105.416L110.662 3.46533H114.324L119.61 18.4717H116.61ZM110.463 13.0047H114.672L112.508 6.875L110.463 13.0047Z" fill="#231F20"/>
<path d="M116.562 18.4236L115.605 15.7227H109.451L108.553 18.4236H105.362L110.608 3.41724H114.27L119.556 18.4236H116.562ZM110.415 12.9566H114.624L112.46 6.8269L110.415 12.9566Z" fill="#231F20"/>
<path d="M116.512 18.3757L115.556 15.6748H109.403L108.506 18.3757H105.314L110.56 3.36938H114.216L119.503 18.3757H116.512ZM110.367 12.9088H114.576L112.412 6.77905L110.367 12.9088Z" fill="#231F20"/>
<path d="M116.466 18.3279L115.51 15.627H109.355L108.458 18.3279H105.267L110.513 3.32153H114.174L119.46 18.3279H116.466ZM110.319 12.8609H114.528L112.364 6.7312L110.319 12.8609Z" fill="#231F20"/>
<path d="M116.419 18.28L115.462 15.5791H109.307L108.41 18.28H105.225L110.47 3.27368H114.132L119.418 18.28H116.419ZM110.272 12.8131H114.48L112.317 6.68335L110.272 12.8131Z" fill="#231F20"/>
<path d="M116.371 18.2322L115.414 15.5313H109.259L108.362 18.2322H105.171L110.417 3.22583H114.079L119.365 18.2322H116.371ZM110.224 12.7652H114.433L112.269 6.63549L110.224 12.7652Z" fill="#231F20"/>
<path d="M116.321 18.1843L115.364 15.4834H109.212L108.314 18.1843H105.123L110.369 3.17798H114.025L119.311 18.1843H116.321ZM110.176 12.7174H114.385L112.221 6.58764L110.176 12.7174Z" fill="#231F20"/>
<path d="M116.275 18.1362L115.318 15.4353H109.164L108.267 18.1362H105.075L110.321 3.12988H113.983L119.269 18.1362H116.275ZM110.128 12.6693H114.337L112.173 6.53955L110.128 12.6693Z" fill="#231F20"/>
<path d="M116.227 18.0884L115.271 15.3875H109.116L108.219 18.0884H105.033L110.279 3.08203H113.941L119.227 18.0884H116.227ZM110.08 12.6214H114.289L112.125 6.4917L110.08 12.6214Z" fill="#231F20"/>
<path d="M116.179 18.0405L115.223 15.3396H109.068L108.171 18.0405H104.98L110.226 3.03418H113.887L119.174 18.0405H116.179ZM110.032 12.5736H114.241L112.078 6.44384L110.032 12.5736Z" fill="#231F20"/>
<path d="M116.13 17.9927L115.173 15.2918H109.02L108.123 17.9927H104.932L110.178 2.98633H113.834L119.12 17.9927H116.13ZM109.985 12.5257H114.194L112.03 6.39599L109.985 12.5257Z" fill="#231F20"/>
<path d="M116.13 17.9927L115.173 15.2918H109.02L108.123 17.9927H104.932L110.178 2.98633H113.834L119.12 17.9927H116.13ZM109.985 12.5257H114.194L112.03 6.39599L109.985 12.5257Z" fill="white"/>
<path d="M116.13 17.9927L115.173 15.2918H109.02L108.123 17.9927H104.932L110.178 2.98633H113.834L119.12 17.9927H116.13ZM109.985 12.5257H114.194L112.03 6.39599L109.985 12.5257Z" stroke="#231F20" stroke-miterlimit="10"/>
<path d="M127.282 16.3607H133V19.19H124.328V4.18359H127.282V16.3607Z" fill="#231F20"/>
<path d="M127.226 16.3128H132.944V19.1421H124.28V4.13574H127.226V16.3128Z" fill="#231F20"/>
<path d="M127.186 16.2647H132.904V19.094H124.232V4.08765H127.186V16.2647Z" fill="#231F20"/>
<path d="M127.138 16.2169H132.857V19.0462H124.184V4.03979H127.138V16.2169Z" fill="#231F20"/>
<path d="M127.09 16.169H132.809V18.9983H124.136V3.99194H127.09V16.169Z" fill="#231F20"/>
<path d="M127.035 16.1212H132.753V18.9504H124.088V3.94409H127.035V16.1212Z" fill="#231F20"/>
<path d="M126.995 16.0733H132.713V18.9026H124.041V3.89624H126.995V16.0733Z" fill="#231F20"/>
<path d="M126.947 16.0255H132.665V18.8547H123.993V3.84839H126.947V16.0255Z" fill="#231F20"/>
<path d="M126.899 15.9776H132.617V18.8069H123.945V3.80054H126.899V15.9776Z" fill="#231F20"/>
<path d="M126.843 15.9295H132.562V18.7588H123.897V3.75244H126.843V15.9295Z" fill="#231F20"/>
<path d="M126.803 15.8817H132.522V18.7109H123.849V3.70459H126.803V15.8817Z" fill="#231F20"/>
<path d="M126.755 15.8338H132.474V18.6631H123.801V3.65674H126.755V15.8338Z" fill="#231F20"/>
<path d="M126.708 15.786H132.426V18.6152H123.754V3.60889H126.708V15.786Z" fill="#231F20"/>
<path d="M126.652 15.7381H132.371V18.5674H123.706V3.56104H126.652V15.7381Z" fill="#231F20"/>
<path d="M126.612 15.6903H132.33V18.5195H123.658V3.51318H126.612V15.6903Z" fill="#231F20"/>
<path d="M126.564 15.6424H132.283V18.4717H123.61V3.46533H126.564V15.6424Z" fill="#231F20"/>
<path d="M126.516 15.5943H132.235V18.4236H123.562V3.41724H126.516V15.5943Z" fill="#231F20"/>
<path d="M126.461 15.5465H132.179V18.3757H123.514V3.36938H126.461V15.5465Z" fill="#231F20"/>
<path d="M126.421 15.4986H132.139V18.3279H123.467V3.32153H126.421V15.4986Z" fill="#231F20"/>
<path d="M126.373 15.4508H132.091V18.28H123.419V3.27368H126.373V15.4508Z" fill="#231F20"/>
<path d="M126.325 15.4029H132.043V18.2322H123.371V3.22583H126.325V15.4029Z" fill="#231F20"/>
<path d="M126.269 15.3551H131.988V18.1843H123.323V3.17798H126.269V15.3551Z" fill="#231F20"/>
<path d="M126.229 15.307H131.948V18.1362H123.275V3.12988H126.229V15.307Z" fill="#231F20"/>
<path d="M126.181 15.2591H131.9V18.0884H123.228V3.08203H126.181V15.2591Z" fill="#231F20"/>
<path d="M126.134 15.2113H131.852V18.0405H123.18V3.03418H126.134V15.2113Z" fill="#231F20"/>
<path d="M126.078 15.1634H131.797V17.9927H123.132V2.98633H126.078V15.1634Z" fill="#231F20"/>
<path d="M126.078 15.1634H131.797V17.9927H123.132V2.98633H126.078V15.1634Z" fill="white"/>
<path d="M126.078 15.1634H131.797V17.9927H123.132V2.98633H126.078V15.1634Z" stroke="#231F20" stroke-miterlimit="10"/>
<path d="M52.421 41.3413H49.0155L43.6586 34.3132V41.3413H40.7066V26.335H43.6625V32.9474L48.8012 26.335H52.2048L46.6566 33.6236L52.421 41.3413Z" fill="#231F20"/>
<path d="M52.3712 41.2932H48.9772L43.6203 34.2651V41.2932H40.6588V26.2869H43.6203V32.8993L48.7591 26.2869H52.1627L46.6145 33.5755L52.3712 41.2932Z" fill="#231F20"/>
<path d="M52.3234 41.2454H48.9199L43.563 34.2173V41.2454H40.611V26.2429H43.5668V32.8515L48.7056 26.2429H52.1091L46.5609 33.5316L52.3234 41.2454Z" fill="#231F20"/>
<path d="M52.2755 41.1975H48.872L43.5151 34.1694V41.1975H40.5593V26.1912H43.5151V32.8036L48.6539 26.1912H52.0574L46.5092 33.4798L52.2755 41.1975Z" fill="#231F20"/>
<path d="M52.2296 41.1497H48.8242L43.4673 34.1215V41.1497H40.5153V26.1433H43.4711V32.7558L48.6099 26.1433H52.0134L46.4652 33.4319L52.2296 41.1497Z" fill="#231F20"/>
<path d="M52.1799 41.1018H48.7859L43.4291 34.0737V41.1018H40.4675V26.0955H43.4291V32.7079L48.5678 26.0955H51.9714L46.4232 33.3841L52.1799 41.1018Z" fill="#231F20"/>
<path d="M52.1321 41.0538H48.7285L43.3716 34.0257V41.0538H40.4196V26.0513H43.3755V32.6599L48.5143 26.0513H51.9178L46.3696 33.3399L52.1321 41.0538Z" fill="#231F20"/>
<path d="M52.0843 41.0061H48.6807L43.3238 33.978V41.0061H40.368V25.9998H43.3238V32.6122L48.4626 25.9998H51.8662L46.318 33.2884L52.0843 41.0061Z" fill="#231F20"/>
<path d="M52.0383 40.958H48.6329L43.276 33.9299V40.958H40.324V25.9517H43.2798V32.5641L48.4186 25.9517H51.8221L46.2739 33.2403L52.0383 40.958Z" fill="#231F20"/>
<path d="M51.9886 40.9102H48.5946L43.2377 33.882V40.9102H40.2761V25.9038H43.2377V32.5163L48.3765 25.9038H51.78L46.2318 33.1924L51.9886 40.9102Z" fill="#231F20"/>
<path d="M51.9407 40.8624H48.5372L43.1803 33.8343V40.8624H40.2283V25.8599H43.1841V32.4685L48.3229 25.8599H51.7264L46.1782 33.1485L51.9407 40.8624Z" fill="#231F20"/>
<path d="M51.8929 40.8145H48.4894L43.1325 33.7863V40.8145H40.1766V25.8081H43.1325V32.4206L48.2713 25.8081H51.6748L46.1266 33.0967L51.8929 40.8145Z" fill="#231F20"/>
<path d="M51.847 40.7666H48.4415L43.0847 33.7385V40.7666H40.1326V25.7603H43.0885V32.3727L48.2273 25.7603H51.6308L46.0826 33.0489L51.847 40.7666Z" fill="#231F20"/>
<path d="M51.7973 40.7188H48.4033L43.0464 33.6906V40.7188H40.0848V25.7124H43.0464V32.3249L48.1852 25.7124H51.5887L46.0405 33.001L51.7973 40.7188Z" fill="#231F20"/>
<path d="M51.7494 40.6707H48.3459L42.989 33.6426V40.6707H40.037V25.6682H42.9928V32.2768L48.1316 25.6682H51.5352L45.987 32.9569L51.7494 40.6707Z" fill="#231F20"/>
<path d="M51.7016 40.6228H48.2981L42.9412 33.5947V40.6228H39.9854V25.6165H42.9412V32.2289L48.08 25.6165H51.4835L45.9353 32.9051L51.7016 40.6228Z" fill="#231F20"/>
<path d="M51.6557 40.575H48.2503L42.8934 33.5468V40.575H39.9413V25.5686H42.8972V32.1811L48.036 25.5686H51.4395L45.8913 32.8572L51.6557 40.575Z" fill="#231F20"/>
<path d="M51.6059 40.5271H48.212L42.8551 33.499V40.5271H39.8935V25.5208H42.8551V32.1332L47.9939 25.5208H51.3974L45.8492 32.8094L51.6059 40.5271Z" fill="#231F20"/>
<path d="M51.5581 40.4793H48.1546L42.7977 33.4512V40.4793H39.8456V25.4768H42.8015V32.0854L47.9403 25.4768H51.3438L45.7956 32.7654L51.5581 40.4793Z" fill="#231F20"/>
<path d="M51.5103 40.4314H48.1067L42.7499 33.4033V40.4314H39.794V25.425H42.7499V32.0375L47.8886 25.425H51.2922L45.744 32.7137L51.5103 40.4314Z" fill="#231F20"/>
<path d="M51.4644 40.3836H48.0589L42.702 33.3554V40.3836H39.75V25.3772H42.7059V31.9896L47.8446 25.3772H51.2482L45.7 32.6658L51.4644 40.3836Z" fill="#231F20"/>
<path d="M51.4147 40.3355H48.0207L42.6638 33.3073V40.3355H39.7022V25.3291H42.6638V31.9416L47.8026 25.3291H51.2061L45.6579 32.6177L51.4147 40.3355Z" fill="#231F20"/>
<path d="M51.3668 40.2877H47.9633L42.6064 33.2596V40.2877H39.6544V25.2852H42.6102V31.8938L47.749 25.2852H51.1525L45.6043 32.5738L51.3668 40.2877Z" fill="#231F20"/>
<path d="M51.319 40.2398H47.9155L42.5586 33.2116V40.2398H39.6027V25.2334H42.5586V31.8459L47.6974 25.2334H51.1009L45.5527 32.522L51.319 40.2398Z" fill="#231F20"/>
<path d="M51.2731 40.1919H47.8676L42.5107 33.1638V40.1919H39.5587V25.1855H42.5146V31.798L47.6534 25.1855H51.0569L45.5087 32.4742L51.2731 40.1919Z" fill="#231F20"/>
<path d="M51.2233 40.1441H47.8293L42.4725 33.1159V40.1441H39.5109V25.1377H42.4725V31.7501L47.6112 25.1377H51.0148L45.4666 32.4263L51.2233 40.1441Z" fill="#231F20"/>
<path d="M51.2233 40.1441H47.8293L42.4725 33.1159V40.1441H39.5109V25.1377H42.4725V31.7501L47.6112 25.1377H51.0148L45.4666 32.4263L51.2233 40.1441Z" fill="white"/>
<path d="M51.2233 40.1441H47.8293L42.4725 33.1159V40.1441H39.5109V25.1377H42.4725V31.7501L47.6112 25.1377H51.0148L45.4666 32.4263L51.2233 40.1441Z" stroke="#231F20" stroke-miterlimit="10"/>
<path d="M66.6607 41.3413L65.7041 38.6404H59.5514L58.6522 41.3413H55.461L60.7069 26.335H64.3687L69.6567 41.3413H66.6607ZM60.5137 35.8744H64.7322L62.5703 29.7446L60.5137 35.8744Z" fill="#231F20"/>
<path d="M66.6129 41.2932L65.6563 38.5923H59.4997L58.6005 41.2932H55.4131L60.6591 26.2869H64.3209L69.6089 41.2932H66.6129ZM60.4658 35.8205H64.6844L62.5225 29.6908L60.4658 35.8205Z" fill="#231F20"/>
<path d="M66.5651 41.2454L65.6085 38.5445H59.4557L58.5565 41.2454H55.3654L60.6113 26.2429H64.2827L69.5707 41.2493L66.5651 41.2454ZM60.418 35.7785H64.6366L62.4747 29.6488L60.418 35.7785Z" fill="#231F20"/>
<path d="M66.5172 41.1975L65.5606 38.4966H59.4079L58.5087 41.1975H55.3175L60.5634 26.1912H64.2252L69.5132 41.1975H66.5172ZM60.3702 35.7306H64.5887L62.4269 29.6008L60.3702 35.7306Z" fill="#231F20"/>
<path d="M66.4694 41.1497L65.5128 38.4488H59.36L58.4608 41.1497H55.2697L60.5156 26.1433H64.1774L69.4654 41.1497H66.4694ZM60.3223 35.6827H64.5409L62.379 29.553L60.3223 35.6827Z" fill="#231F20"/>
<path d="M66.4216 41.1018L65.465 38.4009H59.3084L58.4092 41.1018H55.2219L60.4678 26.0955H64.1296L69.4176 41.1018H66.4216ZM60.2745 35.6291H64.4931L62.3312 29.4994L60.2745 35.6291Z" fill="#231F20"/>
<path d="M66.3737 41.0538L65.4171 38.3529H59.2644L58.3652 41.0538H55.174L60.4199 26.0513H64.0913L69.3793 41.0576L66.3737 41.0538ZM60.2267 35.5868H64.4452L62.2834 29.4571L60.2267 35.5868Z" fill="#231F20"/>
<path d="M66.3259 41.0061L65.3693 38.3052H59.2166L58.3174 41.0061H55.1262L60.3721 25.9998H64.034L69.322 41.0061H66.3259ZM60.1789 35.5392H64.3975L62.2356 29.4094L60.1789 35.5392Z" fill="#231F20"/>
<path d="M66.2781 40.958L65.3215 38.2571H59.1687L58.2695 40.958H55.0784L60.3243 25.9517H63.9861L69.2741 40.958H66.2781ZM60.1311 35.4911H64.3496L62.1877 29.3613L60.1311 35.4911Z" fill="#231F20"/>
<path d="M66.2302 40.9102L65.2736 38.2093H59.1171L58.2179 40.9102H55.0305L60.2764 25.9038H63.9383L69.2263 40.9102H66.2302ZM60.0832 35.4375H64.3018L62.1399 29.3077L60.0832 35.4375Z" fill="#231F20"/>
<path d="M66.1824 40.8624L65.2258 38.1615H59.073L58.1738 40.8624H54.9827L60.2286 25.8599H63.9L69.188 40.8662L66.1824 40.8624ZM60.0354 35.3954H64.2539L62.092 29.2657L60.0354 35.3954Z" fill="#231F20"/>
<path d="M66.1346 40.8145L65.178 38.1135H59.0252L58.126 40.8145H54.9349L60.1808 25.8081H63.8426L69.1306 40.8145H66.1346ZM59.9876 35.3475H64.2061L62.0442 29.2178L59.9876 35.3475Z" fill="#231F20"/>
<path d="M66.0867 40.7666L65.1302 38.0657H58.9774L58.0782 40.7666H54.887L60.1329 25.7603H63.7948L69.0828 40.7666H66.0867ZM59.9397 35.2997H64.1583L61.9964 29.1699L59.9397 35.2997Z" fill="#231F20"/>
<path d="M66.0389 40.7188L65.0824 38.0178H58.9258L58.0266 40.7188H54.8392L60.0852 25.7124H63.747L69.035 40.7188H66.0389ZM59.8919 35.2461H64.1105L61.9486 29.1163L59.8919 35.2461Z" fill="#231F20"/>
<path d="M65.9911 40.6707L65.0345 37.9698H58.8817L57.9826 40.6707H54.7914L60.0373 25.6682H63.7087L68.9967 40.6746L65.9911 40.6707ZM59.8441 35.2038H64.0626L61.9007 29.074L59.8441 35.2038Z" fill="#231F20"/>
<path d="M65.9432 40.6228L64.9867 37.9219H58.8339L57.9347 40.6228H54.7435L59.9894 25.6165H63.6513L68.9393 40.6228H65.9432ZM59.7962 35.1559H64.0148L61.8529 29.0261L59.7962 35.1559Z" fill="#231F20"/>
<path d="M65.8955 40.575L64.9389 37.874H58.7861L57.8869 40.575H54.6957L59.9417 25.5686H63.6035L68.8915 40.575H65.8955ZM59.7484 35.108H63.967L61.8051 28.9783L59.7484 35.108Z" fill="#231F20"/>
<path d="M65.8476 40.5271L64.891 37.8262H58.7344L57.8352 40.5271H54.6479L59.8938 25.5208H63.5556L68.8436 40.5271H65.8476ZM59.7006 35.0544H63.9191L61.7572 28.9247L59.7006 35.0544Z" fill="#231F20"/>
<path d="M65.7998 40.4793L64.8432 37.7784H58.6904L57.7912 40.4793H54.6L59.846 25.4768H63.5173L68.8054 40.4832L65.7998 40.4793ZM59.6527 35.0124H63.8713L61.7094 28.8826L59.6527 35.0124Z" fill="#231F20"/>
<path d="M65.752 40.4314L64.7954 37.7305H58.6426L57.7434 40.4314H54.5522L59.7982 25.425H63.46L68.748 40.4314H65.752ZM59.6049 34.9644H63.8235L61.6616 28.8347L59.6049 34.9644Z" fill="#231F20"/>
<path d="M65.7041 40.3836L64.7475 37.6826H58.5948L57.6956 40.3836H54.5044L59.7503 25.3772H63.4121L68.7001 40.3836H65.7041ZM59.5571 34.9166H63.7756L61.6137 28.7869L59.5571 34.9166Z" fill="#231F20"/>
<path d="M65.6563 40.3355L64.6997 37.6345H58.5431L57.6439 40.3355H54.4566L59.7025 25.3291H63.3643L68.6523 40.3355H65.6563ZM59.5093 34.8628H63.7278L61.566 28.733L59.5093 34.8628Z" fill="#231F20"/>
<path d="M65.6085 40.2877L64.6519 37.5868H58.4991L57.5999 40.2877H54.4088L59.6547 25.2852H63.3261L68.6141 40.2915L65.6085 40.2877ZM59.4614 34.8207H63.68L61.5181 28.691L59.4614 34.8207Z" fill="#231F20"/>
<path d="M65.5606 40.2398L64.604 37.5388H58.4513L57.5521 40.2398H54.3609L59.6068 25.2334H63.2686L68.5566 40.2398H65.5606ZM59.4136 34.7728H63.6321L61.4702 28.6431L59.4136 34.7728Z" fill="#231F20"/>
<path d="M65.5128 40.1919L64.5562 37.491H58.4035L57.5043 40.1919H54.3131L59.559 25.1855H63.2208L68.5089 40.1919H65.5128ZM59.3658 34.7249H63.5843L61.4225 28.5952L59.3658 34.7249Z" fill="#231F20"/>
<path d="M65.465 40.1441L64.5084 37.4431H58.3518L57.4526 40.1441H54.2653L59.5112 25.1377H63.173L68.461 40.1441H65.465ZM59.3179 34.6713H63.5365L61.3746 28.5416L59.3179 34.6713Z" fill="#231F20"/>
<path d="M65.465 40.1441L64.5084 37.4431H58.3518L57.4526 40.1441H54.2653L59.5112 25.1377H63.173L68.461 40.1441H65.465ZM59.3179 34.6713H63.5365L61.3746 28.5416L59.3179 34.6713Z" fill="white"/>
<path d="M65.465 40.1441L64.5084 37.4431H58.3518L57.4526 40.1441H54.2653L59.5112 25.1377H63.173L68.461 40.1441H65.465ZM59.3179 34.6713H63.5365L61.3746 28.5416L59.3179 34.6713Z" stroke="#231F20" stroke-miterlimit="10"/>
<path d="M82.4845 26.335V29.1642H78.4401V41.3413H75.4823V29.1642H71.4647V26.335H82.4845Z" fill="#231F20"/>
<path d="M82.4368 26.2869V29.1161H78.3885V41.2932H75.4345V29.1161H71.4169V26.2869H82.4368Z" fill="#231F20"/>
<path d="M82.3889 26.2429V29.0722H78.3406V41.2493H75.3791V29.0683H71.3614V26.2429H82.3889Z" fill="#231F20"/>
<path d="M82.341 26.1912V29.0204H78.2928V41.1975H75.3388V29.0204H71.3212V26.1912H82.341Z" fill="#231F20"/>
<path d="M82.2933 26.1433V28.9726H78.2488V41.1497H75.291V28.9726H71.2734V26.1433H82.2933Z" fill="#231F20"/>
<path d="M82.2454 26.0955V28.9247H78.1971V41.1018H75.2432V28.9247H71.2255V26.0955H82.2454Z" fill="#231F20"/>
<path d="M82.1976 26.0513V28.8805H78.1493V41.0576H75.1877V28.8767H71.17V26.0513H82.1976Z" fill="#231F20"/>
<path d="M82.1498 25.9998V28.829H78.1015V41.0061H75.1475V28.829H71.1299V25.9998H82.1498Z" fill="#231F20"/>
<path d="M82.1019 25.9517V28.7809H78.0575V40.958H75.0997V28.7809H71.082V25.9517H82.1019Z" fill="#231F20"/>
<path d="M82.0541 25.9038V28.7331H78.0058V40.9102H75.0519V28.7331H71.0342V25.9038H82.0541Z" fill="#231F20"/>
<path d="M82.0063 25.8599V28.6891H77.958V40.8662H74.9964V28.6853H70.9788V25.8599H82.0063Z" fill="#231F20"/>
<path d="M81.9584 25.8081V28.6374H77.9101V40.8145H74.9562V28.6374H70.9385V25.8081H81.9584Z" fill="#231F20"/>
<path d="M81.9106 25.7603V28.5895H77.8662V40.7666H74.9084V28.5895H70.8907V25.7603H81.9106Z" fill="#231F20"/>
<path d="M81.8628 25.7124V28.5417H77.8145V40.7188H74.8606V28.5417H70.8429V25.7124H81.8628Z" fill="#231F20"/>
<path d="M81.8149 25.6682V28.4975H77.7667V40.6746H74.8051V28.4936H70.7874V25.6682H81.8149Z" fill="#231F20"/>
<path d="M81.7671 25.6165V28.4457H77.7189V40.6228H74.7649V28.4457H70.7473V25.6165H81.7671Z" fill="#231F20"/>
<path d="M81.7193 25.5686V28.3979H77.6748V40.575H74.7171V28.3979H70.6994V25.5686H81.7193Z" fill="#231F20"/>
<path d="M81.6715 25.5208V28.35H77.6232V40.5271H74.6693V28.35H70.6516V25.5208H81.6715Z" fill="#231F20"/>
<path d="M81.6237 25.4768V28.3061H77.5754V40.4832H74.6138V28.3022H70.5961V25.4768H81.6237Z" fill="#231F20"/>
<path d="M81.5758 25.425V28.2543H77.5275V40.4314H74.5736V28.2543H70.5559V25.425H81.5758Z" fill="#231F20"/>
<path d="M81.528 25.3772V28.2065H77.4835V40.3836H74.5258V28.2065H70.5081V25.3772H81.528Z" fill="#231F20"/>
<path d="M81.4801 25.3291V28.1584H77.4319V40.3355H74.4779V28.1584H70.4603V25.3291H81.4801Z" fill="#231F20"/>
<path d="M81.4323 25.2852V28.1144H77.384V40.2915H74.4224V28.1106H70.4048V25.2852H81.4323Z" fill="#231F20"/>
<path d="M81.3845 25.2334V28.0627H77.3362V40.2398H74.3823V28.0627H70.3646V25.2334H81.3845Z" fill="#231F20"/>
<path d="M81.3367 25.1855V28.0148H77.2922V40.1919H74.3344V28.0148H70.3168V25.1855H81.3367Z" fill="#231F20"/>
<path d="M81.2889 25.1377V27.967H77.2406V40.1441H74.2866V27.967H70.269V25.1377H81.2889Z" fill="#231F20"/>
<path d="M81.2889 25.1377V27.967H77.2406V40.1441H74.2866V27.967H70.269V25.1377H81.2889Z" fill="white"/>
<path d="M81.2889 25.1377V27.967H77.2406V40.1441H74.2866V27.967H70.269V25.1377H81.2889Z" stroke="#231F20" stroke-miterlimit="10"/>
<path d="M95.2033 26.335H98.1458V41.3413H95.2033V35.1254H89.636V41.3413H86.6821V26.335H89.636V32.2942H95.2033V26.335Z" fill="#231F20"/>
<path d="M95.1555 26.2869H98.0903V41.2932H95.1555V35.0773H89.5882V41.2932H86.6342V26.2869H89.5882V32.2461H95.1555V26.2869Z" fill="#231F20"/>
<path d="M95.1077 26.2429H98.0425V41.2493H95.1077V35.0295H89.5365V41.2454H86.5864V26.2429H89.5365V32.2022H95.1039L95.1077 26.2429Z" fill="#231F20"/>
<path d="M95.0599 26.1912H97.9947V41.1975H95.0599V34.9816H89.4925V41.1975H86.5386V26.1912H89.4925V32.1504H95.0599V26.1912Z" fill="#231F20"/>
<path d="M95.012 26.1433H97.9545V41.1497H95.012V34.9337H89.4447V41.1497H86.4907V26.1433H89.4447V32.1026H95.012V26.1433Z" fill="#231F20"/>
<path d="M94.9642 26.0955H97.899V41.1018H94.9642V34.8859H89.3969V41.1018H86.4429V26.0955H89.3969V32.0547H94.9642V26.0955Z" fill="#231F20"/>
<path d="M94.9164 26.0513H97.8512V41.0576H94.9164V34.8379H89.3452V41.0538H86.3951V26.0513H89.3452V32.0105H94.9125L94.9164 26.0513Z" fill="#231F20"/>
<path d="M94.8686 25.9998H97.8034V41.0061H94.8686V34.7902H89.3012V41.0061H86.3473V25.9998H89.3012V31.959H94.8686V25.9998Z" fill="#231F20"/>
<path d="M94.8207 25.9517H97.7632V40.958H94.8207V34.7421H89.2534V40.958H86.2994V25.9517H89.2534V31.9109H94.8207V25.9517Z" fill="#231F20"/>
<path d="M94.7729 25.9038H97.7077V40.9102H94.7729V34.6942H89.2055V40.9102H86.2516V25.9038H89.2055V31.8631H94.7729V25.9038Z" fill="#231F20"/>
<path d="M94.7251 25.8599H97.6599V40.8662H94.7251V34.6465H89.1539V40.8624H86.2038V25.8599H89.1539V31.8191H94.7212L94.7251 25.8599Z" fill="#231F20"/>
<path d="M94.6772 25.8081H97.612V40.8145H94.6772V34.5985H89.1099V40.8145H86.1559V25.8081H89.1099V31.7674H94.6772V25.8081Z" fill="#231F20"/>
<path d="M94.6294 25.7603H97.5718V40.7666H94.6294V34.5507H89.062V40.7666H86.1081V25.7603H89.062V31.7195H94.6294V25.7603Z" fill="#231F20"/>
<path d="M94.5816 25.7124H97.5164V40.7188H94.5816V34.5028H89.0142V40.7188H86.0603V25.7124H89.0142V31.6717H94.5816V25.7124Z" fill="#231F20"/>
<path d="M94.5337 25.6682H97.4685V40.6746H94.5337V34.4548H88.9626V40.6707H86.0125V25.6682H88.9626V31.6275H94.5299L94.5337 25.6682Z" fill="#231F20"/>
<path d="M94.4859 25.6165H97.4207V40.6228H94.4859V34.4069H88.9185V40.6228H85.9646V25.6165H88.9185V31.5757H94.4859V25.6165Z" fill="#231F20"/>
<path d="M94.4381 25.5686H97.3805V40.575H94.4381V34.359H88.8707V40.575H85.9168V25.5686H88.8707V31.5279H94.4381V25.5686Z" fill="#231F20"/>
<path d="M94.3902 25.5208H97.325V40.5271H94.3902V34.3112H88.8229V40.5271H85.869V25.5208H88.8229V31.48H94.3902V25.5208Z" fill="#231F20"/>
<path d="M94.3424 25.4768H97.2772V40.4832H94.3424V34.2634H88.7712V40.4793H85.8211V25.4768H88.7712V31.4361H94.3386L94.3424 25.4768Z" fill="#231F20"/>
<path d="M94.2946 25.425H97.2294V40.4314H94.2946V34.2155H88.7273V40.4314H85.7733V25.425H88.7273V31.3843H94.2946V25.425Z" fill="#231F20"/>
<path d="M94.2467 25.3772H97.1892V40.3836H94.2467V34.1676H88.6794V40.3836H85.7255V25.3772H88.6794V31.3364H94.2467V25.3772Z" fill="#231F20"/>
<path d="M94.1989 25.3291H97.1337V40.3355H94.1989V34.1195H88.6316V40.3355H85.6776V25.3291H88.6316V31.2884H94.1989V25.3291Z" fill="#231F20"/>
<path d="M94.1511 25.2852H97.0859V40.2915H94.1511V34.0717H88.5799V40.2877H85.6298V25.2852H88.5799V31.2444H94.1473L94.1511 25.2852Z" fill="#231F20"/>
<path d="M94.1032 25.2334H97.0381V40.2398H94.1032V34.0238H88.5359V40.2398H85.582V25.2334H88.5359V31.1926H94.1032V25.2334Z" fill="#231F20"/>
<path d="M94.0555 25.1855H96.9979V40.1919H94.0555V33.976H88.4881V40.1919H85.5342V25.1855H88.4881V31.1448H94.0555V25.1855Z" fill="#231F20"/>
<path d="M94.0076 25.1377H96.9424V40.1441H94.0076V33.9281H88.4403V40.1441H85.4863V25.1377H88.4403V31.0969H94.0076V25.1377Z" fill="#231F20"/>
<path d="M94.0076 25.1377H96.9424V40.1441H94.0076V33.9281H88.4403V40.1441H85.4863V25.1377H88.4403V31.0969H94.0076V25.1377Z" fill="white"/>
<path d="M94.0076 25.1377H96.9424V40.1441H94.0076V33.9281H88.4403V40.1441H85.4863V25.1377H88.4403V31.0969H94.0076V25.1377Z" stroke="#231F20" stroke-miterlimit="10"/>
<path d="M113.321 41.3413L112.365 38.6404H106.212L105.313 41.3413H102.121L107.369 26.335H111.029L116.321 41.3413H113.321ZM107.174 35.8744H111.383L109.221 29.7446L107.174 35.8744Z" fill="#231F20"/>
<path d="M113.273 41.2932L112.317 38.5923H106.164L105.265 41.2932H102.074L107.329 26.2869H110.989L116.277 41.2932H113.273ZM107.126 35.8205H111.335L109.173 29.6908L107.126 35.8205Z" fill="#231F20"/>
<path d="M113.225 41.2454L112.269 38.5445H106.116L105.217 41.2454H102.026L107.274 26.2429H110.933L116.221 41.2493L113.225 41.2454ZM107.078 35.7785H111.287L109.126 29.6488L107.078 35.7785Z" fill="#231F20"/>
<path d="M113.178 41.1975L112.221 38.4966H106.068L105.169 41.1975H101.972L107.22 26.1912H110.88L116.168 41.1975H113.178ZM107.031 35.7306H111.24L109.078 29.6008L107.031 35.7306Z" fill="#231F20"/>
<path d="M113.13 41.1497L112.173 38.4488H106.02L105.121 41.1497H101.93L107.178 26.1433H110.838L116.13 41.1497H113.13ZM106.983 35.6827H111.192L109.03 29.553L106.983 35.6827Z" fill="#231F20"/>
<path d="M113.082 41.1018L112.125 38.4009H105.973L105.073 41.1018H101.882L107.138 26.0955H110.798L116.086 41.1018H113.082ZM106.935 35.6291H111.144L108.982 29.4994L106.935 35.6291Z" fill="#231F20"/>
<path d="M113.034 41.0538L112.078 38.3529H105.925L105.026 41.0538H101.834L107.082 26.0513H110.742L116.03 41.0576L113.034 41.0538ZM106.887 35.5868H111.096L108.934 29.4571L106.887 35.5868Z" fill="#231F20"/>
<path d="M112.986 41.0061L112.03 38.3052H105.877L104.978 41.0061H101.781L107.029 25.9998H110.689L115.977 41.0061H112.986ZM106.839 35.5392H111.048L108.886 29.4094L106.839 35.5392Z" fill="#231F20"/>
<path d="M112.938 40.958L111.982 38.2571H105.829L104.93 40.958H101.739L106.987 25.9517H110.647L115.938 40.958H112.938ZM106.791 35.4911H111L108.839 29.3613L106.791 35.4911Z" fill="#231F20"/>
<path d="M112.891 40.9102L111.934 38.2093H105.781L104.882 40.9102H101.691L106.946 25.9038H110.606L115.894 40.9102H112.891ZM106.744 35.4375H110.953L108.791 29.3077L106.744 35.4375Z" fill="#231F20"/>
<path d="M112.843 40.8624L111.886 38.1615H105.733L104.834 40.8624H101.643L106.891 25.8599H110.551L115.839 40.8662L112.843 40.8624ZM106.696 35.3954H110.905L108.743 29.2657L106.696 35.3954Z" fill="#231F20"/>
<path d="M112.795 40.8145L111.838 38.1135H105.686L104.786 40.8145H101.59L106.837 25.8081H110.497L115.785 40.8145H112.795ZM106.648 35.3475H110.857L108.695 29.2178L106.648 35.3475Z" fill="#231F20"/>
<path d="M112.747 40.7666L111.791 38.0657H105.638L104.739 40.7666H101.547L106.795 25.7603H110.455L115.747 40.7666H112.747ZM106.6 35.2997H110.809L108.647 29.1699L106.6 35.2997Z" fill="#231F20"/>
<path d="M112.699 40.7188L111.743 38.0178H105.59L104.691 40.7188H101.5L106.755 25.7124H110.415L115.703 40.7188H112.699ZM106.552 35.2461H110.761L108.599 29.1163L106.552 35.2461Z" fill="#231F20"/>
<path d="M112.651 40.6707L111.695 37.9698H105.542L104.643 40.6707H101.452L106.7 25.6682H110.36L115.648 40.6746L112.651 40.6707ZM106.504 35.2038H110.713L108.552 29.074L106.504 35.2038Z" fill="#231F20"/>
<path d="M112.604 40.6228L111.647 37.9219H105.494L104.595 40.6228H101.398L106.646 25.6165H110.306L115.594 40.6228H112.604ZM106.457 35.1559H110.666L108.504 29.0261L106.457 35.1559Z" fill="#231F20"/>
<path d="M112.556 40.575L111.599 37.874H105.446L104.547 40.575H101.356L106.604 25.5686H110.264L115.556 40.575H112.556ZM106.409 35.108H110.618L108.456 28.9783L106.409 35.108Z" fill="#231F20"/>
<path d="M112.508 40.5271L111.551 37.8262H105.399L104.499 40.5271H101.308L106.564 25.5208H110.224L115.512 40.5271H112.508ZM106.361 35.0544H110.57L108.408 28.9247L106.361 35.0544Z" fill="#231F20"/>
<path d="M112.46 40.4793L111.504 37.7784H105.351L104.452 40.4793H101.26L106.508 25.4768H110.168L115.456 40.4832L112.46 40.4793ZM106.313 35.0124H110.522L108.36 28.8826L106.313 35.0124Z" fill="#231F20"/>
<path d="M112.412 40.4314L111.456 37.7305H105.303L104.404 40.4314H101.207L106.455 25.425H110.115L115.403 40.4314H112.412ZM106.265 34.9644H110.474L108.312 28.8347L106.265 34.9644Z" fill="#231F20"/>
<path d="M112.365 40.3836L111.408 37.6826H105.255L104.356 40.3836H101.165L106.413 25.3772H110.073L115.364 40.3836H112.365ZM106.217 34.9166H110.426L108.265 28.7869L106.217 34.9166Z" fill="#231F20"/>
<path d="M112.317 40.3355L111.36 37.6345H105.207L104.308 40.3355H101.117L106.372 25.3291H110.032L115.32 40.3355H112.317ZM106.17 34.8628H110.379L108.217 28.733L106.17 34.8628Z" fill="#231F20"/>
<path d="M112.269 40.2877L111.312 37.5868H105.16L104.26 40.2877H101.069L106.317 25.2852H109.977L115.265 40.2915L112.269 40.2877ZM106.122 34.8207H110.331L108.169 28.691L106.122 34.8207Z" fill="#231F20"/>
<path d="M112.221 40.2398L111.264 37.5388H105.112L104.212 40.2398H101.016L106.263 25.2334H109.923L115.211 40.2398H112.221ZM106.074 34.7728H110.283L108.121 28.6431L106.074 34.7728Z" fill="#231F20"/>
<path d="M112.173 40.1919L111.217 37.491H105.064L104.165 40.1919H100.974L106.221 25.1855H109.881L115.173 40.1919H112.173ZM106.026 34.7249H110.235L108.073 28.5952L106.026 34.7249Z" fill="#231F20"/>
<path d="M112.125 40.1441L111.169 37.4431H105.016L104.117 40.1441H100.926L106.181 25.1377H109.841L115.129 40.1441H112.125ZM105.978 34.6713H110.187L108.025 28.5416L105.978 34.6713Z" fill="#231F20"/>
<path d="M112.125 40.1441L111.169 37.4431H105.016L104.117 40.1441H100.926L106.181 25.1377H109.841L115.129 40.1441H112.125ZM105.978 34.6713H110.187L108.025 28.5416L105.978 34.6713Z" fill="white"/>
<path d="M112.125 40.1441L111.169 37.4431H105.016L104.117 40.1441H100.926L106.181 25.1377H109.841L115.129 40.1441H112.125ZM105.978 34.6713H110.187L108.025 28.5416L105.978 34.6713Z" stroke="#231F20" stroke-miterlimit="10"/>
</g>
<defs>
<clipPath id="clip0_45_856">
<rect width="133" height="44" fill="white"/>
</clipPath>
</defs>
</svg>
